<svg version="1.1" id="Layer_1" xmlns="http://www.w3.org/2000/svg" xmlns:xlink="http://www.w3.org/1999/xlink" x="0px" y="0px"
	 width="100%" viewBox="0 0 614 615" enable-background="new 0 0 614 615" xml:space="preserve">

<path fill="#1C7DDB" opacity="1.000000" stroke="none" 
	d="
M303.209473,385.084045 
	C302.745148,385.411713 302.280853,385.739410 301.150146,386.074341 
	C299.397766,386.832520 298.311737,387.583466 297.225739,388.334412 
	C297.225739,388.334412 297.259491,388.256378 296.828918,388.180481 
	C291.782532,389.626831 287.130188,391.048920 282.566467,392.713837 
	C280.298187,393.541321 278.192505,394.814514 276.013306,395.886108 
	C271.354797,397.104401 266.714508,398.398712 262.033386,399.522766 
	C255.339767,401.130066 248.616241,402.612762 241.255966,404.239655 
	C240.291168,404.452667 240.056641,404.664276 239.457733,404.973328 
	C236.009781,405.001312 233.006958,405.021393 230.226288,404.761414 
	C236.700012,402.728119 237.243622,401.515533 235.284958,395.212891 
	C233.719559,390.175781 231.918976,385.120453 231.212936,379.938293 
	C230.708313,376.234467 232.541321,372.158447 228.767609,369.215363 
	C223.804733,371.777344 223.106491,371.343414 223.009369,365.515991 
	C222.949829,361.943298 223.178421,358.352539 222.879044,354.803497 
	C222.755219,353.335632 221.867371,351.700348 220.844513,350.582886 
	C217.547485,346.981049 215.456879,343.210815 217.394867,338.178864 
	C218.898651,334.274261 218.232040,331.147583 214.177917,329.043701 
	C210.944626,327.365784 209.062607,325.031952 210.665817,320.913940 
	C210.993744,320.071655 209.364944,317.688416 208.146194,317.168427 
	C204.405151,315.572388 200.425232,314.536255 196.486237,313.265717 
	C198.491287,312.088318 200.244720,311.058655 202.280334,310.010254 
	C202.750153,309.973541 202.937805,309.955658 203.332550,309.930481 
	C203.539658,309.923218 203.953613,309.944122 204.215149,310.238647 
	C206.325226,310.684937 208.173782,310.836731 210.354401,311.007446 
	C211.128937,311.056335 211.571411,311.086365 212.325195,311.389709 
	C222.035553,311.432251 231.436554,311.250671 240.830063,310.879425 
	C241.598633,310.849060 242.316101,309.526215 243.057327,308.803894 
	C248.636078,307.711151 254.325577,307.003479 259.768463,305.438232 
	C268.630066,302.889923 277.353058,299.847656 286.089478,296.881104 
	C290.508698,295.380524 294.829163,293.589264 299.769257,292.178650 
	C302.220764,291.938385 304.097321,291.448914 305.986938,290.979736 
	C306.000000,291.000000 305.972717,290.958801 306.274902,290.953094 
	C307.052399,290.629150 307.527710,290.310944 308.316925,289.946533 
	C309.421356,289.603302 310.211914,289.306274 311.134369,289.321960 
	C310.546600,291.025330 310.185089,293.016174 309.042419,293.698151 
	C305.037109,296.088623 300.762665,298.028198 297.122253,299.869934 
	C297.699982,302.948364 298.549377,304.737640 298.218506,306.272552 
	C297.496155,309.623993 295.507568,312.794128 295.247131,316.132812 
	C294.819153,321.618378 293.704529,327.982910 295.907867,332.499512 
	C298.523132,337.860596 298.689911,343.062927 297.564728,347.781403 
	C295.919495,354.680664 297.305817,361.100159 297.707977,367.745728 
	C297.904999,371.001190 299.194244,372.606354 302.238586,373.876709 
	C303.910736,374.574463 305.497284,377.120972 305.753571,379.018799 
	C305.939819,380.397736 303.832916,382.049896 302.869629,383.653046 
	C302.689117,383.953491 303.081482,384.598206 303.209473,385.084045 
z"/>
<path fill="#115DDC" opacity="1.000000" stroke="none" 
	d="
M138.954071,218.839691 
	C141.953766,204.384201 149.033768,192.128616 159.597198,181.996460 
	C166.296432,175.570755 173.163742,169.186615 180.673920,163.781876 
	C186.798340,159.374390 193.831024,156.101471 200.748886,152.959305 
	C207.899857,149.711227 215.278122,146.841385 222.776428,144.512802 
	C231.139984,141.915512 236.871964,144.433197 240.134277,151.804520 
	C240.014175,152.656677 239.958206,152.852112 239.626328,153.346252 
	C239.231369,158.431198 239.112335,163.217422 238.622345,168.045624 
	C237.166306,170.072510 236.218384,172.149857 234.959641,174.017715 
	C233.551010,176.108002 232.211426,179.176010 230.227051,179.772141 
	C224.327698,181.544312 219.623016,184.737717 215.359039,188.973511 
	C213.446198,190.873703 211.154816,192.389252 209.069580,194.120758 
	C207.552689,195.380341 205.707932,196.459396 204.678528,198.051590 
	C201.585037,202.836411 198.767563,207.743515 191.734375,206.067841 
	C191.444916,205.998886 191.011261,206.089401 190.782990,206.275314 
	C186.494598,209.767914 182.280243,213.353424 177.941055,216.781082 
	C173.127304,220.583603 168.468353,224.690674 163.233978,227.813644 
	C159.790329,229.868225 154.999207,229.892944 154.856491,235.451950 
	C154.845993,235.861130 154.465088,236.463928 154.098907,236.630432 
	C148.481735,239.184738 146.262497,244.372879 144.226700,249.352615 
	C142.097946,248.189484 140.077789,247.085693 138.045197,245.515442 
	C138.339859,236.312546 138.646957,227.576126 138.954071,218.839691 
z"/>
<path fill="#0F56D7" opacity="1.000000" stroke="none" 
	d="
M138.057632,245.981903 
	C140.077789,247.085693 142.097946,248.189484 144.226700,249.352615 
	C146.262497,244.372879 148.481735,239.184738 154.098907,236.630432 
	C154.465088,236.463928 154.845993,235.861130 154.856491,235.451950 
	C154.999207,229.892944 159.790329,229.868225 163.233978,227.813644 
	C168.468353,224.690674 173.127304,220.583603 177.941055,216.781082 
	C182.280243,213.353424 186.494598,209.767914 190.782990,206.275314 
	C191.011261,206.089401 191.444916,205.998886 191.734375,206.067841 
	C198.767563,207.743515 201.585037,202.836411 204.678528,198.051590 
	C205.707932,196.459396 207.552689,195.380341 209.069580,194.120758 
	C211.154816,192.389252 213.446198,190.873703 215.359039,188.973511 
	C219.623016,184.737717 224.327698,181.544312 230.227051,179.772141 
	C232.211426,179.176010 233.551010,176.108002 234.959641,174.017715 
	C236.218384,172.149857 237.166306,170.072510 238.623825,168.513870 
	C238.995132,182.626266 238.993988,196.312408 238.617523,210.047607 
	C237.494690,211.404739 236.705307,212.691040 236.010696,214.026627 
	C235.204315,215.577072 234.844604,218.136902 233.660355,218.582489 
	C227.751694,220.805695 221.871063,222.958038 216.877747,226.976105 
	C216.773148,227.060257 216.531876,226.952576 216.389145,227.014526 
	C213.058197,228.460098 208.935135,229.138275 206.583481,231.545700 
	C202.613708,235.609634 196.399826,235.865097 193.027161,241.151703 
	C191.135269,244.117279 186.540237,245.422241 183.064728,247.292557 
	C180.489639,248.678329 177.597382,249.513153 175.124725,251.043198 
	C169.294403,254.650909 164.698013,260.037262 160.206375,264.836945 
	C156.329880,268.979279 151.252808,267.724335 147.707321,270.910065 
	C147.250137,270.590210 147.081314,270.330536 146.977158,269.715057 
	C146.632202,268.944366 146.305786,268.475403 145.989990,268.003204 
	C146.000610,268.000000 145.986801,268.017426 145.971832,267.716187 
	C145.631271,266.948212 145.305679,266.481506 144.990051,266.007385 
	C145.000000,266.000000 144.979263,266.013641 144.966949,265.713013 
	C144.629654,264.947113 144.304688,264.481903 143.989868,264.008331 
	C144.000000,264.000000 143.977615,264.013000 143.963745,263.707886 
	C143.606689,262.941895 143.263489,262.480988 142.686829,261.849121 
	C142.298264,261.131805 142.143173,260.585419 141.972595,259.734131 
	C141.634232,258.949585 141.311356,258.469971 140.837921,257.680267 
	C139.774948,255.584824 138.862503,253.799423 137.689926,252.017456 
	C137.082993,252.023926 136.736176,252.026993 136.389359,252.030060 
	C136.319946,251.587555 136.250519,251.145035 136.511536,250.343430 
	C137.214584,249.680542 137.587204,249.376770 137.974579,248.686874 
	C138.012085,247.527802 138.034851,246.754852 138.057632,245.981903 
z"/>
<path fill="#1763DE" opacity="1.000000" stroke="none" 
	d="
M230.148941,496.117981 
	C225.848557,502.195862 221.548172,508.273743 216.865875,514.651672 
	C216.312637,514.953247 216.141342,514.954834 215.778625,514.691284 
	C214.501526,513.106628 213.332291,511.845703 212.353638,510.451080 
	C211.373611,509.054382 210.706253,507.429932 209.669861,506.083954 
	C208.917068,505.106354 207.709473,504.493866 206.838028,503.590027 
	C203.698059,500.333374 200.729950,496.901794 197.466660,493.776733 
	C195.498001,491.891449 192.878433,490.678955 190.942245,488.768036 
	C184.565216,482.474396 177.948456,476.313873 175.085938,467.382416 
	C174.905869,466.820557 174.259705,466.382782 173.776230,465.947418 
	C168.658707,461.339569 163.557709,456.776825 159.459381,451.115723 
	C156.929794,447.621552 152.873215,445.182800 150.567932,441.586975 
	C146.131699,434.667297 146.445496,434.466125 139.005554,435.527588 
	C139.004150,416.038361 139.005127,397.017365 139.370819,378.001221 
	C143.157639,381.000458 146.579742,383.994843 150.053101,387.335327 
	C151.070328,388.120148 152.036285,388.558838 153.001129,388.998779 
	C153.000000,389.000000 153.002426,388.997345 153.001007,389.460815 
	C153.000320,392.919983 152.880554,395.922974 153.060410,398.907898 
	C153.133438,400.119995 153.659805,401.421112 154.328613,402.456482 
	C155.682297,404.552063 158.395294,406.406097 158.560318,408.515289 
	C159.083664,415.204193 168.160797,417.618469 166.406036,425.139496 
	C170.405365,426.049774 168.361877,430.044525 169.870941,431.969238 
	C172.681290,435.553772 176.146790,438.629639 179.383759,441.873199 
	C182.307800,444.803253 185.401550,447.571106 188.223938,450.593994 
	C193.526505,456.273163 195.829910,464.702637 204.005844,467.770813 
	C204.400040,467.918762 204.839630,468.493500 204.893967,468.916260 
	C205.593491,474.359375 209.612686,476.861420 213.774704,479.411102 
	C215.088470,480.216003 215.855698,481.907959 216.884033,483.185089 
	C218.666550,485.398773 220.525803,487.554413 222.229050,489.827179 
	C224.757080,493.200531 227.312241,491.468933 229.971130,490.090057 
	C230.500946,489.815277 231.282104,490.025177 231.918015,490.348328 
	C231.308762,492.496002 230.728851,494.307007 230.148941,496.117981 
z"/>
<path fill="#237BDC" opacity="1.000000" stroke="none" 
	d="
M303.609314,385.088501 
	C303.081482,384.598206 302.689117,383.953491 302.869629,383.653046 
	C303.832916,382.049896 305.939819,380.397736 305.753571,379.018799 
	C305.497284,377.120972 303.910736,374.574463 302.238586,373.876709 
	C299.194244,372.606354 297.904999,371.001190 297.707977,367.745728 
	C297.305817,361.100159 295.919495,354.680664 297.564728,347.781403 
	C298.689911,343.062927 298.523132,337.860596 295.907867,332.499512 
	C293.704529,327.982910 294.819153,321.618378 295.247131,316.132812 
	C295.507568,312.794128 297.496155,309.623993 298.218506,306.272552 
	C298.549377,304.737640 297.699982,302.948364 297.122253,299.869934 
	C300.762665,298.028198 305.037109,296.088623 309.042419,293.698151 
	C310.185089,293.016174 310.546600,291.025330 311.514038,289.259644 
	C317.083496,287.591431 322.405182,286.298248 327.726898,285.005066 
	C328.438812,284.681152 329.150726,284.357239 330.668091,284.325623 
	C334.798370,285.390350 333.641663,287.283020 332.415588,288.927765 
	C328.865479,293.689880 327.786591,299.082092 327.994537,304.870270 
	C328.347839,314.705017 328.655975,324.541351 329.003113,334.376312 
	C329.321381,343.394836 330.249512,352.443604 329.770630,361.418304 
	C329.502167,366.450653 330.217926,368.878784 337.359497,368.135193 
	C335.446533,371.550903 334.230011,373.723114 333.013458,375.895325 
	C329.741333,377.211426 326.542664,378.768829 323.181305,379.791656 
	C316.840057,381.721313 310.405151,383.343170 303.609314,385.088501 
z"/>
<path fill="#693AE5" opacity="1.000000" stroke="none" 
	d="
M446.993835,146.977432 
	C448.083374,146.643509 449.172882,146.309570 451.032227,145.992798 
	C457.397430,145.642731 462.992828,145.275497 468.588257,144.908234 
	C470.450531,146.979691 472.312775,149.051132 474.129639,151.947083 
	C474.056274,221.539597 474.046173,290.307587 473.992706,359.075592 
	C473.966064,393.373383 473.860077,427.671082 473.541077,461.641937 
	C473.187958,453.883301 473.083710,446.451569 472.987671,438.549042 
	C472.996826,409.383057 472.997803,380.687866 473.000549,351.543182 
	C472.999146,348.396210 472.995972,345.698700 472.996460,342.532471 
	C472.995819,313.711700 472.991547,285.359680 472.992249,256.538086 
	C472.997284,235.248932 472.997284,214.429306 472.997284,193.609665 
	C472.243011,193.563675 471.488770,193.517670 470.734497,193.471664 
	C470.349182,197.793640 469.963867,202.115601 469.462250,207.741806 
	C467.667816,204.789017 466.561890,202.969208 465.499664,201.221344 
	C459.087555,202.877762 453.044403,204.438889 446.617798,205.956131 
	C442.982513,205.054810 440.705353,204.232056 439.300507,199.993195 
	C438.240967,196.796249 436.547943,191.339676 430.990234,190.577850 
	C429.813019,183.737122 428.608002,177.324890 427.521851,170.892593 
	C427.372009,170.005371 427.508453,168.786301 428.024475,168.113892 
	C433.319580,161.214523 436.193481,152.035812 445.776489,149.091705 
	C446.345123,148.917007 446.595398,147.706131 446.993835,146.977432 
z"/>
<path fill="#2C77DC" opacity="1.000000" stroke="none" 
	d="
M333.417633,375.957947 
	C334.230011,373.723114 335.446533,371.550903 337.359497,368.135193 
	C330.217926,368.878784 329.502167,366.450653 329.770630,361.418304 
	C330.249512,352.443604 329.321381,343.394836 329.003113,334.376312 
	C328.655975,324.541351 328.347839,314.705017 327.994537,304.870270 
	C327.786591,299.082092 328.865479,293.689880 332.415588,288.927765 
	C333.641663,287.283020 334.798370,285.390350 331.253113,284.381409 
	C334.649597,283.723419 338.266541,283.301941 342.680359,282.923828 
	C345.347961,282.578339 347.218628,282.189453 349.089294,281.800598 
	C351.767731,281.813507 354.446167,281.826447 357.557434,282.303162 
	C357.406799,283.903992 357.108124,285.637573 356.190857,286.075562 
	C352.089355,288.033813 351.604858,291.380951 351.995514,295.265778 
	C352.673462,302.007355 353.800140,308.746674 353.872589,315.496246 
	C353.979553,325.463928 353.270050,335.438324 353.023041,345.412720 
	C352.886993,350.906921 353.824310,356.578430 352.744904,361.856567 
	C351.644165,367.239166 354.329315,367.987762 358.089020,369.068024 
	C359.537689,369.484283 360.700317,370.896240 361.993256,371.854523 
	C352.602783,373.243195 343.212280,374.631866 333.417633,375.957947 
z"/>
<path fill="#4741DF" opacity="1.000000" stroke="none" 
	d="
M423.997559,538.855408 
	C417.146881,544.757690 409.110016,548.584473 400.504120,551.729004 
	C403.266296,546.780945 396.336243,547.011536 396.360992,543.155640 
	C398.500702,543.368042 400.443787,543.560852 401.755432,543.691040 
	C398.647949,535.094910 395.846100,526.395691 392.300842,518.010803 
	C390.911102,514.723877 387.758820,512.210938 385.599091,509.208923 
	C384.509705,507.694733 383.441223,505.962219 383.058075,504.179169 
	C381.577576,497.289764 378.584503,494.005219 372.024658,492.836182 
	C372.024658,483.910248 372.024658,474.944733 372.457428,465.986237 
	C380.483887,465.497498 385.714172,468.950287 389.047607,475.621155 
	C390.606232,478.740173 392.409027,479.075104 394.493317,476.038177 
	C395.011444,475.283234 395.705048,474.648743 396.392731,473.874847 
	C398.419891,475.727753 400.210541,477.364471 402.038757,479.365479 
	C405.049042,486.481598 408.100189,493.200623 410.950317,500.003876 
	C411.897858,502.265778 413.071014,504.810028 412.865601,507.111328 
	C412.077484,515.940796 416.402313,522.638550 420.881195,529.538513 
	C422.607452,532.197937 422.998291,535.724121 423.997559,538.855408 
z"/>
<path fill="#1876E3" opacity="1.000000" stroke="none" 
	d="
M200.083008,532.516541 
	C196.824783,535.063477 193.566574,537.610413 189.548492,540.154053 
	C181.599945,542.648315 176.598038,537.540161 171.982605,534.080566 
	C163.158737,527.466370 155.150864,519.714050 148.802322,510.462830 
	C147.771667,508.961029 145.798874,507.325623 144.139633,507.184387 
	C139.507416,506.790039 138.934265,504.094269 138.969711,500.360046 
	C139.065811,490.240814 139.004044,480.120117 139.370758,470.040649 
	C142.473358,471.389893 145.210068,472.698456 147.589844,473.836365 
	C149.563034,475.924408 151.320801,477.939178 153.247726,479.776550 
	C154.918121,481.369415 157.094742,482.513275 158.495590,484.290680 
	C161.969376,488.698242 164.824570,493.618591 170.925812,495.081055 
	C172.220291,495.391327 173.349380,496.795471 174.344528,497.887207 
	C182.835236,507.202087 191.277496,516.561096 199.103516,525.209900 
	C201.938202,524.716919 203.981445,524.361511 206.016296,524.391479 
	C206.027939,525.546631 206.047943,526.316528 206.067947,527.086365 
	C206.067947,527.086365 206.007111,527.040710 205.795059,527.122314 
	C205.397446,527.493286 205.211884,527.782654 205.026306,528.072021 
	C205.026306,528.072021 205.006287,528.007202 204.791138,528.103455 
	C204.388489,528.483765 204.201004,528.767822 204.013489,529.051880 
	C204.013489,529.051880 204.001358,528.998962 203.683380,529.034790 
	C202.646729,529.819946 201.928040,530.569397 201.209351,531.318787 
	C201.209351,531.318787 201.045517,531.218201 200.802567,531.275024 
	C200.400757,531.726807 200.241882,532.121643 200.083008,532.516541 
z"/>
<path fill="#5732D6" opacity="1.000000" stroke="none" 
	d="
M472.979462,439.019836 
	C473.083710,446.451569 473.187958,453.883301 473.592133,462.064880 
	C473.964294,463.375824 474.036469,463.936890 474.108643,464.497955 
	C474.108643,464.497955 474.281219,464.793182 473.885315,465.057373 
	C473.585175,466.491669 473.680908,467.661774 473.776611,468.831879 
	C470.807983,476.848999 467.839294,484.866119 464.135590,492.963684 
	C460.767059,494.542450 458.191345,496.159729 455.471588,497.480347 
	C454.390686,498.005219 452.990540,497.872711 451.735718,498.039490 
	C452.068970,496.615906 452.286469,495.152374 452.761322,493.777710 
	C453.569733,491.437317 454.539917,489.152771 455.442108,486.844757 
	C455.140961,486.465332 454.839783,486.085876 454.538605,485.706451 
	C449.978241,488.065918 448.320404,485.319580 447.128876,482.214020 
	C444.770691,476.067505 442.594116,469.851349 440.160309,463.163452 
	C440.398712,461.903534 441.654022,459.431641 441.047913,457.563782 
	C439.951874,454.186035 437.744537,451.168915 436.000793,447.601074 
	C436.000244,446.133942 436.000122,445.066986 436.312256,443.846191 
	C438.082428,440.850037 439.566620,438.020691 440.986237,435.159271 
	C441.608185,433.905670 441.914032,431.595428 442.677277,431.453522 
	C449.008850,430.276642 453.998138,428.153381 452.071411,419.524323 
	C453.719788,420.341949 454.332245,420.523407 454.793060,420.893585 
	C458.546204,423.908295 462.270905,426.958313 466.309570,430.153076 
	C468.736420,433.212341 470.857941,436.116089 472.979462,439.019836 
z"/>
<path fill="#5E3EE4" opacity="1.000000" stroke="none" 
	d="
M446.656189,146.955536 
	C446.595398,147.706131 446.345123,148.917007 445.776489,149.091705 
	C436.193481,152.035812 433.319580,161.214523 428.024475,168.113892 
	C427.508453,168.786301 427.372009,170.005371 427.521851,170.892593 
	C428.608002,177.324890 429.813019,183.737122 430.983948,190.965393 
	C429.617279,197.461960 428.298737,203.162323 426.820129,208.820847 
	C426.603607,209.649292 425.624878,210.278580 424.623474,211.041809 
	C422.144623,210.869308 419.982178,210.888580 417.953613,210.376923 
	C415.799072,209.833496 413.835449,208.421509 411.673889,208.043030 
	C408.241089,207.441940 404.705841,207.451279 401.228210,207.071381 
	C399.138519,206.843109 397.075958,206.366318 394.841888,205.635925 
	C393.587372,199.981430 392.492157,194.692230 391.406403,189.448502 
	C388.509918,190.016312 385.975098,190.513214 383.440277,191.010132 
	C389.025330,184.875702 394.254944,178.360367 400.299896,172.718719 
	C405.850739,167.538208 412.203949,163.194229 418.370972,158.711884 
	C420.128845,157.434250 422.530914,157.082214 424.532532,156.093140 
	C430.065918,153.358856 435.492798,150.403702 441.076874,147.780884 
	C442.616943,147.057510 444.560242,147.192505 446.656189,146.955536 
z"/>
<path fill="#3572DB" opacity="1.000000" stroke="none" 
	d="
M362.409058,371.917664 
	C360.700317,370.896240 359.537689,369.484283 358.089020,369.068024 
	C354.329315,367.987762 351.644165,367.239166 352.744904,361.856567 
	C353.824310,356.578430 352.886993,350.906921 353.023041,345.412720 
	C353.270050,335.438324 353.979553,325.463928 353.872589,315.496246 
	C353.800140,308.746674 352.673462,302.007355 351.995514,295.265778 
	C351.604858,291.380951 352.089355,288.033813 356.190857,286.075562 
	C357.108124,285.637573 357.406799,283.903992 357.997070,282.396515 
	C361.704041,281.215027 365.404175,280.403931 369.498108,279.476379 
	C369.939575,279.882202 369.987213,280.404510 370.181274,281.197784 
	C371.219696,281.979980 372.111725,282.491180 373.001984,283.401550 
	C373.002869,289.302002 373.007263,294.803345 373.007721,300.304657 
	C373.008270,307.027130 373.386749,313.778503 372.880188,320.462677 
	C372.493988,325.558899 370.001984,330.034546 370.554504,335.786804 
	C371.506226,345.694427 369.968781,355.831879 369.715088,365.878906 
	C369.689514,366.891235 371.129211,368.214630 372.201782,368.913330 
	C373.641754,369.851379 375.386475,370.321594 376.587097,370.995544 
	C374.393677,371.382080 372.613495,371.765778 370.451050,372.138489 
	C369.052032,372.134979 368.035278,372.142395 367.018555,372.149811 
	C365.620667,372.093475 364.222748,372.037140 362.409058,371.917664 
z"/>
<path fill="#0F56D7" opacity="1.000000" stroke="none" 
	d="
M239.174103,471.046753 
	C239.174103,471.046753 239.114883,471.448761 238.863144,471.810944 
	C238.070740,472.780548 237.530090,473.387970 236.710236,473.755859 
	C234.576111,472.263489 232.721176,471.010620 230.282959,469.363800 
	C230.365814,466.825317 229.170944,464.637177 225.115250,464.761597 
	C223.843735,464.800598 222.170776,463.730804 221.292328,462.665039 
	C215.503082,455.641937 205.892670,451.963318 203.310532,442.082886 
	C203.023361,440.984100 201.482956,440.224457 200.551575,439.280121 
	C198.036911,436.730591 195.442108,434.251648 193.053238,431.588501 
	C189.167221,427.256348 185.417023,422.802246 181.615387,418.394531 
	C180.350082,416.927460 178.899994,415.570862 177.888229,413.943787 
	C175.577560,410.227844 173.784027,406.154022 171.189667,402.664856 
	C169.695862,400.655853 166.948593,399.619690 164.979324,397.900726 
	C164.314957,397.320801 164.308517,395.987122 164.328049,395.141846 
	C172.438766,398.170990 180.222824,401.056213 188.238632,404.236938 
	C192.454483,405.497070 196.438583,406.461670 198.878372,407.052368 
	C201.914474,411.399170 203.953934,415.006470 206.652588,418.024231 
	C210.869705,422.740051 215.788544,426.835266 219.929382,431.610291 
	C223.435699,435.653595 226.202209,440.331696 229.431381,444.627167 
	C230.172455,445.612946 231.618164,446.044037 232.472778,446.975281 
	C233.766907,448.385376 235.342072,449.858002 235.851578,451.583496 
	C236.438461,453.571045 236.149963,455.875824 235.963745,458.018707 
	C235.700836,461.044006 236.857681,462.401581 239.953644,462.415680 
	C239.718597,465.565216 239.446350,468.305969 239.174103,471.046753 
z"/>
<path fill="#4148E4" opacity="1.000000" stroke="none" 
	d="
M372.024658,465.979187 
	C372.024658,474.944733 372.024658,483.910248 372.024658,492.836182 
	C378.584503,494.005219 381.577576,497.289764 383.058075,504.179169 
	C383.441223,505.962219 384.509705,507.694733 385.599091,509.208923 
	C387.758820,512.210938 390.911102,514.723877 392.300842,518.010803 
	C395.846100,526.395691 398.647949,535.094910 401.755432,543.691040 
	C400.443787,543.560852 398.500702,543.368042 396.360992,543.155640 
	C396.336243,547.011536 403.266296,546.780945 400.142151,551.765015 
	C400.153656,552.141174 400.100433,552.096619 399.896301,552.144043 
	C399.380737,552.328369 399.156158,552.552307 399.018402,552.863281 
	C394.318176,554.639221 389.723938,556.863525 384.874847,558.009827 
	C382.285187,558.621948 379.255707,557.373535 376.058838,556.412476 
	C375.101074,555.607544 374.509186,555.354919 373.917267,555.102356 
	C373.917267,555.102356 374.003296,555.004883 373.866943,554.814880 
	C373.435150,554.465698 373.139648,554.306519 372.844177,554.147339 
	C372.844177,554.147339 372.864746,554.000916 372.854218,553.674316 
	C372.193481,546.880310 371.543274,540.412781 370.868774,533.480530 
	C370.929932,480.697174 371.015442,428.378571 371.378052,376.358948 
	C371.775116,384.103180 371.895081,391.548462 372.008667,399.462769 
	C372.009705,421.947601 372.017181,443.963379 372.024658,465.979187 
z"/>
<path fill="#1F80E2" opacity="1.000000" stroke="none" 
	d="
M139.004883,470.000000 
	C139.004044,480.120117 139.065811,490.240814 138.969711,500.360046 
	C138.934265,504.094269 139.507416,506.790039 144.139633,507.184387 
	C145.798874,507.325623 147.771667,508.961029 148.802322,510.462830 
	C155.150864,519.714050 163.158737,527.466370 171.982605,534.080566 
	C176.598038,537.540161 181.599945,542.648315 189.231766,540.260254 
	C183.068039,544.122986 176.525040,547.995850 169.823654,551.571899 
	C167.041641,553.056396 163.921188,553.906616 160.160492,555.072632 
	C153.210175,557.753723 147.056000,557.251831 140.902863,555.088379 
	C140.902863,555.088379 140.973755,555.014343 140.865479,554.814392 
	C140.459000,554.438416 140.160767,554.262451 139.862534,554.086487 
	C139.862534,554.086487 139.938293,554.133972 139.921570,553.772156 
	C138.944687,550.907166 137.984528,548.403931 137.322174,545.619751 
	C137.733795,544.357666 137.946274,543.376709 137.947067,542.395569 
	C137.968201,516.258667 137.967529,490.121735 137.979309,463.518982 
	C138.009964,458.038696 138.031891,453.024170 138.287933,448.008057 
	C138.522079,448.006470 138.991455,448.009766 138.992447,448.477722 
	C138.997253,455.963776 139.001068,462.981903 139.004883,470.000000 
z"/>
<path fill="#5237D9" opacity="1.000000" stroke="none" 
	d="
M436.001221,448.001221 
	C437.744537,451.168915 439.951874,454.186035 441.047913,457.563782 
	C441.654022,459.431641 440.398712,461.903534 440.160309,463.163452 
	C442.594116,469.851349 444.770691,476.067505 447.128876,482.214020 
	C448.320404,485.319580 449.978241,488.065918 454.538605,485.706451 
	C454.839783,486.085876 455.140961,486.465332 455.442108,486.844757 
	C454.539917,489.152771 453.569733,491.437317 452.761322,493.777710 
	C452.286469,495.152374 452.068970,496.615906 451.735718,498.039490 
	C452.990540,497.872711 454.390686,498.005219 455.471588,497.480347 
	C458.191345,496.159729 460.767059,494.542450 463.791931,493.057220 
	C459.670502,500.025787 455.419525,507.171539 450.550934,513.868286 
	C447.416138,518.180237 443.374176,521.832642 439.069366,525.853149 
	C437.301758,524.544312 435.482239,523.285278 435.223755,521.761414 
	C433.674103,512.626465 432.331055,503.554382 429.252197,494.659271 
	C426.766052,487.476654 426.340759,479.580719 425.152832,471.651611 
	C426.012756,467.766876 426.480804,464.197052 430.651917,462.641388 
	C431.606354,462.285431 432.575592,460.480927 432.579376,459.339935 
	C432.591309,455.736816 432.148285,452.132202 431.858734,448.223450 
	C433.076630,448.158112 434.538940,448.079681 436.001221,448.001221 
z"/>
<path fill="#4C3BDC" opacity="1.000000" stroke="none" 
	d="
M425.001221,472.001221 
	C426.340759,479.580719 426.766052,487.476654 429.252197,494.659271 
	C432.331055,503.554382 433.674103,512.626465 435.223755,521.761414 
	C435.482239,523.285278 437.301758,524.544312 438.760681,525.987427 
	C434.307434,530.327332 429.493469,534.605530 424.338562,538.869629 
	C422.998291,535.724121 422.607452,532.197937 420.881195,529.538513 
	C416.402313,522.638550 412.077484,515.940796 412.865601,507.111328 
	C413.071014,504.810028 411.897858,502.265778 410.950317,500.003876 
	C408.100189,493.200623 405.049042,486.481598 402.408569,479.321991 
	C408.521118,477.289032 413.308960,474.524780 415.083893,468.246918 
	C415.128143,468.090393 415.683197,468.078247 416.356293,468.034546 
	C419.475464,469.380615 422.238342,470.690918 425.001221,472.001221 
z"/>
<path fill="#523FDF" opacity="1.000000" stroke="none" 
	d="
M383.360718,191.204926 
	C385.975098,190.513214 388.509918,190.016312 391.406403,189.448502 
	C392.492157,194.692230 393.587372,199.981430 394.841370,206.091949 
	C395.258728,210.188171 395.292786,213.499725 395.820496,216.730667 
	C397.090576,224.507202 398.591919,232.245987 399.697021,240.153015 
	C397.595215,242.204025 395.796387,244.102005 393.647034,246.035706 
	C387.676453,252.220291 382.028992,249.649719 376.166046,245.709564 
	C375.233490,243.559769 377.726074,238.762527 372.004333,238.550720 
	C371.672638,234.739502 371.345154,231.381500 370.981354,227.617004 
	C370.929321,226.125839 370.913544,225.041153 370.897766,223.956467 
	C372.531891,217.545105 373.805176,211.010788 375.932587,204.767532 
	C377.252777,200.893188 379.868347,197.460251 382.624878,193.854858 
	C383.738037,193.637482 384.128754,193.394424 384.519470,193.151367 
	C384.127411,192.706207 383.735382,192.261047 383.343323,191.815887 
	C383.343323,191.815887 383.281128,191.399704 383.360718,191.204926 
z"/>
<path fill="#0F46CB" opacity="1.000000" stroke="none" 
	d="
M138.053802,448.009674 
	C138.031891,453.024170 138.009964,458.038696 137.698502,463.522400 
	C137.033844,463.990601 136.658707,463.989563 136.283585,463.988556 
	C136.229568,442.292877 136.175552,420.597168 136.318390,398.348083 
	C136.690704,397.453033 136.594421,397.198212 136.226410,397.030212 
	C136.199753,361.299805 136.166840,325.569397 136.149872,289.838989 
	C136.144043,277.540253 136.177948,265.241486 136.291534,252.486404 
	C136.736176,252.026993 137.082993,252.023926 137.694077,252.484726 
	C137.985184,282.956238 138.012024,312.963867 138.025101,343.314697 
	C138.020554,344.114746 138.029739,344.571625 138.026031,345.493835 
	C138.031708,352.962006 138.050278,359.964813 138.049194,367.437897 
	C138.037628,394.608673 138.045715,421.309174 138.053802,448.009674 
z"/>
<path fill="#1B077C" opacity="1.000000" stroke="none" 
	d="
M371.100952,376.059998 
	C371.015442,428.378571 370.929932,480.697174 370.615295,533.497192 
	C370.051514,533.927002 369.716919,533.875305 369.382324,533.823608 
	C369.355255,480.896606 369.328156,427.969635 369.492554,374.421509 
	C369.405334,373.561493 369.126648,373.322632 368.847992,373.083771 
	C368.300964,372.950043 367.753937,372.816315 367.112732,372.416199 
	C368.035278,372.142395 369.052032,372.134979 370.439758,372.171997 
	C370.810760,372.216431 370.858856,372.268188 370.882996,372.643188 
	C370.971710,374.032135 371.036346,375.046051 371.100952,376.059998 
z"/>
<path fill="#1B077C" opacity="1.000000" stroke="none" 
	d="
M474.438049,464.183777 
	C474.036469,463.936890 473.964294,463.375824 473.841034,462.391785 
	C473.860077,427.671082 473.966064,393.373383 473.992706,359.075592 
	C474.046173,290.307587 474.056274,221.539597 474.118958,152.295929 
	C474.441528,153.387146 474.980621,154.953949 474.981323,156.520966 
	C475.026367,257.813385 475.028656,359.105835 475.022034,460.398285 
	C475.021973,461.555389 474.856018,462.712463 474.438049,464.183777 
z"/>
<path fill="#1B077C" opacity="1.000000" stroke="none" 
	d="
M239.902237,153.047546 
	C239.958206,152.852112 240.014175,152.656677 240.158417,152.169983 
	C240.523773,153.612061 241.041031,155.345123 241.043030,157.078766 
	C241.100952,207.000702 241.107254,256.922729 240.972778,307.557495 
	C240.300217,308.465851 239.776779,308.661438 239.390045,308.484161 
	C239.637192,294.370728 239.747620,280.630127 239.900116,266.433350 
	C239.928864,228.333969 239.915558,190.690750 239.902237,153.047546 
z"/>
<path fill="#0F56D7" opacity="1.000000" stroke="none" 
	d="
M136.188736,464.398926 
	C136.658707,463.989563 137.033844,463.990601 137.689758,463.988220 
	C137.967529,490.121735 137.968201,516.258667 137.947067,542.395569 
	C137.946274,543.376709 137.733795,544.357666 137.242218,545.435303 
	C136.727127,545.286194 136.528381,545.109436 136.268280,545.001587 
	C136.221756,544.546326 136.175217,544.091125 136.430298,543.031189 
	C136.577972,540.626709 136.424042,538.826904 136.270111,537.027100 
	C136.210800,514.990540 136.151505,492.953918 136.305450,470.360535 
	C136.423019,469.538544 136.327332,469.273407 136.231659,469.008240 
	C136.185745,467.608582 136.139816,466.208954 136.188736,464.398926 
z"/>
<path fill="#1B077C" opacity="1.000000" stroke="none" 
	d="
M370.581238,224.123688 
	C370.913544,225.041153 370.929321,226.125839 370.936401,228.081360 
	C370.968872,245.619736 371.009979,262.287262 371.003784,279.264984 
	C370.888153,279.986481 370.819824,280.397766 370.569885,280.823425 
	C370.388245,280.837769 370.034851,280.926788 370.034851,280.926788 
	C369.987213,280.404510 369.939575,279.882202 369.693115,279.189880 
	C369.468506,262.650787 369.442719,246.281754 369.638702,229.298279 
	C369.996796,228.386368 369.964203,228.108643 369.762695,227.850662 
	C369.930023,226.664078 370.097351,225.477509 370.581238,224.123688 
z"/>
<path fill="#1B077C" opacity="1.000000" stroke="none" 
	d="
M239.502319,470.851288 
	C239.446350,468.305969 239.718597,465.565216 240.001282,461.948242 
	C239.975418,442.369843 239.939133,423.667664 239.902847,404.965485 
	C240.056641,404.664276 240.291168,404.452667 240.844513,404.314697 
	C241.085419,423.292114 241.145111,442.285797 241.034485,461.278503 
	C241.016266,464.406525 240.250702,467.530151 239.502319,470.851288 
z"/>
<path fill="#0F46CB" opacity="1.000000" stroke="none" 
	d="
M138.045197,245.515442 
	C138.034851,246.754852 138.012085,247.527802 137.730499,248.479767 
	C137.119064,247.459488 136.766434,246.260208 136.413788,245.060944 
	C136.362778,240.285339 136.311752,235.509750 136.593933,230.040359 
	C136.931137,228.570404 136.935165,227.794235 136.939209,227.018066 
	C137.377365,224.413834 137.815536,221.809616 138.603882,219.022537 
	C138.646957,227.576126 138.339859,236.312546 138.045197,245.515442 
z"/>
<path fill="#1F80E2" opacity="1.000000" stroke="none" 
	d="
M239.253326,308.857025 
	C239.776779,308.661438 240.300217,308.465851 240.960861,308.010376 
	C241.660355,307.926208 242.222656,308.101898 242.921143,308.540771 
	C242.316101,309.526215 241.598633,310.849060 240.830063,310.879425 
	C231.436554,311.250671 222.035553,311.432251 212.786682,311.342590 
	C221.709015,310.300476 230.481171,309.578735 239.253326,308.857025 
z"/>
<path fill="#0F46CB" opacity="1.000000" stroke="none" 
	d="
M327.823334,284.752411 
	C322.405182,286.298248 317.083496,287.591431 311.382111,288.946899 
	C310.211914,289.306274 309.421356,289.603302 308.016724,289.960632 
	C306.925964,290.333557 306.449341,290.646179 305.972717,290.958801 
	C305.972717,290.958801 306.000000,291.000000 305.565918,290.983368 
	C303.728424,290.961395 302.325043,290.956085 300.921661,290.950745 
	C309.921021,288.800415 318.920410,286.650085 327.823334,284.752411 
z"/>
<path fill="#452ECC" opacity="1.000000" stroke="none" 
	d="
M468.380859,144.610962 
	C462.992828,145.275497 457.397430,145.642731 451.329102,145.982605 
	C452.791992,144.997360 454.703705,143.302933 456.668823,143.238510 
	C460.487854,143.113312 464.336884,143.903000 468.380859,144.610962 
z"/>
<path fill="#0F46CB" opacity="1.000000" stroke="none" 
	d="
M236.989456,473.995392 
	C237.530090,473.387970 238.070740,472.780548 238.876419,472.013672 
	C236.357773,479.846191 233.574112,487.838165 230.469696,495.974060 
	C230.728851,494.307007 231.308762,492.496002 232.079163,490.026978 
	C233.842926,484.244415 235.416199,479.119904 236.989456,473.995392 
z"/>
<path fill="#524ED9" opacity="1.000000" stroke="none" 
	d="
M369.248779,534.286133 
	C369.716919,533.875305 370.051514,533.927002 370.639587,533.962036 
	C371.543274,540.412781 372.193481,546.880310 372.830200,553.744751 
	C371.554291,550.787720 369.861328,547.520752 369.160431,544.053162 
	C368.557556,541.070496 369.086670,537.858948 369.248779,534.286133 
z"/>
<path fill="#1F6DD9" opacity="1.000000" stroke="none" 
	d="
M276.397522,395.931793 
	C278.192505,394.814514 280.298187,393.541321 282.566467,392.713837 
	C287.130188,391.048920 291.782532,389.626831 296.795593,388.206787 
	C290.389160,390.865173 283.585480,393.421326 276.397522,395.931793 
z"/>
<path fill="#1F6DD9" opacity="1.000000" stroke="none" 
	d="
M141.080811,555.391541 
	C147.056000,557.251831 153.210175,557.753723 159.770798,555.088196 
	C155.156097,559.059387 147.681000,559.303772 141.080811,555.391541 
z"/>
<path fill="#1F6DD9" opacity="1.000000" stroke="none" 
	d="
M136.171951,545.392151 
	C136.528381,545.109436 136.727127,545.286194 136.944427,545.716309 
	C137.984528,548.403931 138.944687,550.907166 139.877869,553.781616 
	C138.592468,551.362854 137.334045,548.572754 136.171951,545.392151 
z"/>
<path fill="#0F46CB" opacity="1.000000" stroke="none" 
	d="
M206.380157,526.982910 
	C206.047943,526.316528 206.027939,525.546631 206.323303,524.255981 
	C208.079666,523.140076 209.520645,522.544922 211.010101,522.003357 
	C211.058594,522.056885 211.161896,522.157837 211.161896,522.157837 
	C209.672058,523.731750 208.182205,525.305603 206.380157,526.982910 
z"/>
<path fill="#3572DB" opacity="1.000000" stroke="none" 
	d="
M348.861267,281.492188 
	C347.218628,282.189453 345.347961,282.578339 343.113739,282.935730 
	C344.711212,282.330750 346.672211,281.757294 348.861267,281.492188 
z"/>
<path fill="#237BDC" opacity="1.000000" stroke="none" 
	d="
M300.686157,291.010498 
	C302.325043,290.956085 303.728424,290.961395 305.552856,290.963074 
	C304.097321,291.448914 302.220764,291.938385 300.141052,292.144318 
	C299.978394,291.512726 300.149323,291.249207 300.686157,291.010498 
z"/>
<path fill="#1F6DD9" opacity="1.000000" stroke="none" 
	d="
M297.581604,388.311096 
	C298.311737,387.583466 299.397766,386.832520 300.840424,386.080566 
	C300.110565,386.815582 299.024017,387.551666 297.581604,388.311096 
z"/>
<path fill="#1F6DD9" opacity="1.000000" stroke="none" 
	d="
M136.170166,537.442627 
	C136.424042,538.826904 136.577972,540.626709 136.503967,542.694214 
	C136.207443,541.260681 136.138824,539.559387 136.170166,537.442627 
z"/>
<path fill="#1F6DD9" opacity="1.000000" stroke="none" 
	d="
M136.300385,245.464417 
	C136.766434,246.260208 137.119064,247.459488 137.715759,248.865875 
	C137.587204,249.376770 137.214584,249.680542 136.592102,250.013382 
	C136.290497,248.650925 136.238724,247.259415 136.300385,245.464417 
z"/>
<path fill="#1B077C" opacity="1.000000" stroke="none" 
	d="
M473.901001,468.468811 
	C473.680908,467.661774 473.585175,466.491669 473.773285,465.186523 
	C474.046539,466.069611 474.035950,467.087677 473.901001,468.468811 
z"/>
<path fill="#0F46CB" opacity="1.000000" stroke="none" 
	d="
M201.527985,531.324280 
	C201.928040,530.569397 202.646729,529.819946 203.707230,529.047791 
	C203.314896,529.793274 202.580750,530.561523 201.527985,531.324280 
z"/>
<path fill="#5E3EE4" opacity="1.000000" stroke="none" 
	d="
M383.220581,192.057831 
	C383.735382,192.261047 384.127411,192.706207 384.519470,193.151367 
	C384.128754,193.394424 383.738037,193.637482 382.993347,193.871460 
	C382.792206,193.341522 382.945038,192.820648 383.220581,192.057831 
z"/>
<path fill="#1F6DD9" opacity="1.000000" stroke="none" 
	d="
M136.740662,227.242401 
	C136.935165,227.794235 136.931137,228.570404 136.780487,229.598648 
	C136.603287,229.056061 136.572708,228.261383 136.740662,227.242401 
z"/>
<path fill="#0F46CB" opacity="1.000000" stroke="none" 
	d="
M216.417877,516.488220 
	C215.950073,517.065125 215.482285,517.642029 214.639191,518.231567 
	C214.263885,518.244263 213.966797,517.968994 214.084076,517.702881 
	C214.781708,516.943359 215.362061,516.450012 216.062408,516.088501 
	C216.182404,516.220398 216.417877,516.488220 216.417877,516.488220 
z"/>
<path fill="#0F46CB" opacity="1.000000" stroke="none" 
	d="
M214.405762,518.388794 
	C214.222931,518.970459 213.898209,519.407715 213.294739,519.931274 
	C213.015961,520.017639 212.949539,519.961975 212.972260,519.663818 
	C213.318924,518.900085 213.642868,518.434570 213.966797,517.968994 
	C213.966797,517.968994 214.263885,518.244263 214.405762,518.388794 
z"/>
<path fill="#0F46CB" opacity="1.000000" stroke="none" 
	d="
M215.970032,514.956421 
	C216.141342,514.954834 216.312637,514.953247 216.740448,514.965942 
	C216.925415,515.431030 216.853867,515.881836 216.600098,516.410400 
	C216.417877,516.488220 216.182404,516.220398 216.069397,515.838623 
	C215.960953,515.290100 215.965500,515.123230 215.970032,514.956421 
z"/>
<path fill="#524ED9" opacity="1.000000" stroke="none" 
	d="
M374.069031,555.373657 
	C374.509186,555.354919 375.101074,555.607544 375.771088,556.193481 
	C375.306396,556.232910 374.763580,555.938965 374.069031,555.373657 
z"/>
<path fill="#0F46CB" opacity="1.000000" stroke="none" 
	d="
M200.409897,532.371460 
	C200.241882,532.121643 200.400757,531.726807 200.851776,531.192505 
	C201.008224,531.444153 200.872498,531.835266 200.409897,532.371460 
z"/>
<path fill="#1F6DD9" opacity="1.000000" stroke="none" 
	d="
M136.156738,469.253784 
	C136.327332,469.273407 136.423019,469.538544 136.377594,469.896301 
	C136.184921,469.825745 136.133377,469.662537 136.156738,469.253784 
z"/>
<path fill="#524ED9" opacity="1.000000" stroke="none" 
	d="
M368.936157,373.364349 
	C369.126648,373.322632 369.405334,373.561493 369.524994,373.962036 
	C369.252106,373.964142 369.138214,373.804535 368.936157,373.364349 
z"/>
<path fill="#524ED9" opacity="1.000000" stroke="none" 
	d="
M372.923492,554.400513 
	C373.139648,554.306519 373.435150,554.465698 373.826019,554.866333 
	C373.615234,554.956421 373.309021,554.804993 372.923492,554.400513 
z"/>
<path fill="#1F6DD9" opacity="1.000000" stroke="none" 
	d="
M139.942871,554.347168 
	C140.160767,554.262451 140.459000,554.438416 140.851639,554.863770 
	C140.638443,554.944641 140.330826,554.776245 139.942871,554.347168 
z"/>
<path fill="#4741DF" opacity="1.000000" stroke="none" 
	d="
M399.286560,552.885986 
	C399.156158,552.552307 399.380737,552.328369 399.930176,552.140259 
	C399.963715,552.362366 399.759186,552.635559 399.286560,552.885986 
z"/>
<path fill="#3572DB" opacity="1.000000" stroke="none" 
	d="
M369.566742,227.991165 
	C369.964203,228.108643 369.996796,228.386368 369.701355,228.832886 
	C369.214783,228.752960 369.157654,228.469543 369.566742,227.991165 
z"/>
<path fill="#0F46CB" opacity="1.000000" stroke="none" 
	d="
M204.274719,528.986328 
	C204.201004,528.767822 204.388489,528.483765 204.823746,528.112793 
	C204.892975,528.324158 204.714447,528.622498 204.274719,528.986328 
z"/>
<path fill="#0F46CB" opacity="1.000000" stroke="none" 
	d="
M205.291489,528.005188 
	C205.211884,527.782654 205.397446,527.493286 205.832520,527.115967 
	C205.906921,527.331482 205.731796,527.634888 205.291489,528.005188 
z"/>
<path fill="#1F6DD9" opacity="1.000000" stroke="none" 
	d="
M136.148254,397.265259 
	C136.594421,397.198212 136.690704,397.453033 136.376129,397.880676 
	C136.236984,397.966675 136.070114,397.500275 136.148254,397.265259 
z"/>
<path fill="#0F46CB" opacity="1.000000" stroke="none" 
	d="
M212.118011,521.110413 
	C211.958542,521.401611 211.799072,521.692810 211.400757,522.070923 
	C211.161896,522.157837 211.058594,522.056885 211.107361,521.776733 
	C211.352859,521.209656 211.621704,521.031677 212.001160,520.999939 
	C212.039673,521.037231 212.118011,521.110413 212.118011,521.110413 
z"/>
<path fill="#0F46CB" opacity="1.000000" stroke="none" 
	d="
M213.046494,520.048401 
	C212.919022,520.368835 212.761032,520.658569 212.360519,521.029297 
	C212.118011,521.110413 212.039673,521.037231 212.092743,520.769714 
	C212.336746,520.207581 212.604645,520.027527 212.949539,519.961975 
	C212.949539,519.961975 213.015961,520.017639 213.046494,520.048401 
z"/>
<path fill="#1D76DB" opacity="1.000000" stroke="none" 
	d="
M201.998169,310.029022 
	C200.244720,311.058655 198.491287,312.088318 196.486237,313.265717 
	C200.425232,314.536255 204.405151,315.572388 208.146194,317.168427 
	C209.364944,317.688416 210.993744,320.071655 210.665817,320.913940 
	C209.062607,325.031952 210.944626,327.365784 214.177917,329.043701 
	C218.232040,331.147583 218.898651,334.274261 217.394867,338.178864 
	C215.456879,343.210815 217.547485,346.981049 220.844513,350.582886 
	C221.867371,351.700348 222.755219,353.335632 222.879044,354.803497 
	C223.178421,358.352539 222.949829,361.943298 223.009369,365.515991 
	C223.106491,371.343414 223.804733,371.777344 228.767609,369.215363 
	C232.541321,372.158447 230.708313,376.234467 231.212936,379.938293 
	C231.918976,385.120453 233.719559,390.175781 235.284958,395.212891 
	C237.243622,401.515533 236.700012,402.728119 229.919556,405.040283 
	C222.626816,405.727783 215.862366,405.969147 209.099365,405.933655 
	C206.053055,405.917664 203.009659,405.349487 200.236984,404.740814 
	C202.862549,404.142944 205.216049,403.836060 208.735886,403.377106 
	C205.210464,399.407379 202.769073,395.564423 199.345612,393.068512 
	C194.612305,389.617645 189.835175,386.526184 187.360489,380.906342 
	C186.382355,378.685059 185.459427,375.416260 183.700974,374.743927 
	C177.084183,372.214050 175.497574,365.882874 171.999191,360.543457 
	C171.943939,354.414337 173.045364,348.680908 166.649399,344.782898 
	C163.952164,343.139130 162.747284,339.196228 165.541611,335.606659 
	C166.469269,334.414978 166.537994,332.554626 166.955322,330.675354 
	C165.941025,330.233917 164.970825,330.117157 163.702576,329.979736 
	C162.936035,329.639374 162.467560,329.319702 161.957977,328.643372 
	C161.706818,327.841217 161.439301,327.413239 161.297104,326.947021 
	C160.814468,325.364349 160.376144,323.768158 159.920883,322.177155 
	C161.383484,322.556885 162.939941,322.734650 164.287933,323.361023 
	C166.647385,324.457367 168.878845,325.829163 171.854584,327.465271 
	C171.724899,325.715149 171.926361,324.802002 171.596359,324.527313 
	C166.925156,320.639221 170.377380,317.920166 173.008453,315.275299 
	C173.813919,314.465637 175.586929,314.636230 176.428772,313.841125 
	C178.029968,312.328918 179.279358,310.444153 180.674835,308.714111 
	C179.264862,308.438019 177.781525,308.348175 176.466751,307.830383 
	C175.290680,307.367188 174.233017,306.513275 173.241180,305.689606 
	C170.509537,303.421082 167.945740,300.935211 165.100525,298.825226 
	C163.693665,297.781921 161.813202,297.377228 160.147018,296.683594 
	C160.265930,295.985291 160.384842,295.286987 160.503738,294.588684 
	C163.015442,294.703735 165.527130,294.818787 168.021179,294.950012 
	C168.003540,294.966187 168.050903,294.962280 168.208435,295.226990 
	C168.948135,295.646088 169.530304,295.800446 170.420013,296.099731 
	C173.805817,298.145569 176.884064,300.046539 180.133392,302.204712 
	C180.880020,302.627136 181.455566,302.792389 182.015259,302.978210 
	C181.999390,302.998779 182.028427,302.954193 182.181793,303.214233 
	C182.899185,303.633942 183.463181,303.793610 184.016998,303.976654 
	C184.006805,304.000000 184.035828,303.954407 184.187927,304.286987 
	C185.929352,305.065186 187.518677,305.510834 189.331848,305.963348 
	C189.555695,305.970184 190.001480,306.013458 190.065430,306.377563 
	C194.085648,307.837433 198.041916,308.933228 201.998169,310.029022 
z"/>
<path fill="#0F46CB" opacity="1.000000" stroke="none" 
	d="
M179.962311,301.947510 
	C176.884064,300.046539 173.805817,298.145569 170.234375,295.859314 
	C169.177780,295.303406 168.614334,295.132843 168.050903,294.962280 
	C168.050903,294.962280 168.003540,294.966187 168.000137,294.640564 
	C167.650681,293.567139 167.304611,292.819305 167.341049,292.043518 
	C168.962158,291.299927 171.215027,290.654022 171.269867,289.856964 
	C171.561035,285.624481 174.995972,284.737518 177.731842,283.182159 
	C182.272278,280.600952 186.920105,278.207275 191.546814,275.780609 
	C192.263748,275.404572 193.176163,275.394440 193.881378,275.004089 
	C195.644882,274.027893 197.334579,272.919220 199.066071,271.884064 
	C202.358002,269.916016 205.492783,267.569611 208.993362,266.092651 
	C214.533707,263.755066 220.394043,262.179443 225.953659,259.881439 
	C227.354599,259.302368 228.126251,257.204010 229.190979,255.806793 
	C229.582382,255.293167 229.985077,254.788132 230.515839,254.108643 
	C231.896027,254.712799 233.174881,255.272598 233.900024,255.590012 
	C235.910431,254.171127 237.454178,253.081604 239.000565,252.457703 
	C239.288177,257.578735 239.573120,262.234161 239.858063,266.889557 
	C239.747620,280.630127 239.637192,294.370728 239.390045,308.484161 
	C230.481171,309.578735 221.709015,310.300476 212.475372,311.069305 
	C211.571411,311.086365 211.128937,311.056335 210.099213,310.712341 
	C207.659180,310.246918 205.806396,310.095520 203.953613,309.944122 
	C203.953613,309.944122 203.539658,309.923218 203.069214,309.667114 
	C198.399673,308.278473 194.200577,307.145966 190.001480,306.013458 
	C190.001480,306.013458 189.555695,305.970184 189.098297,305.703400 
	C187.105881,304.942535 185.570847,304.448456 184.035828,303.954407 
	C184.035828,303.954407 184.006805,304.000000 183.851410,303.731506 
	C183.140152,303.293427 182.584290,303.123810 182.028427,302.954193 
	C182.028427,302.954193 181.999390,302.998779 181.839020,302.731445 
	C181.106522,302.291870 180.534424,302.119690 179.962311,301.947510 
z"/>
<path fill="#0F50D2" opacity="1.000000" stroke="none" 
	d="
M199.964935,405.031830 
	C203.009659,405.349487 206.053055,405.917664 209.099365,405.933655 
	C215.862366,405.969147 222.626816,405.727783 229.697418,405.320374 
	C233.006958,405.021393 236.009781,405.001312 239.457733,404.973328 
	C239.939133,423.667664 239.975418,442.369843 239.964050,461.539490 
	C236.857681,462.401581 235.700836,461.044006 235.963745,458.018707 
	C236.149963,455.875824 236.438461,453.571045 235.851578,451.583496 
	C235.342072,449.858002 233.766907,448.385376 232.472778,446.975281 
	C231.618164,446.044037 230.172455,445.612946 229.431381,444.627167 
	C226.202209,440.331696 223.435699,435.653595 219.929382,431.610291 
	C215.788544,426.835266 210.869705,422.740051 206.652588,418.024231 
	C203.953934,415.006470 201.914474,411.399170 198.878372,407.052368 
	C196.438583,406.461670 192.454483,405.497070 188.672516,404.251099 
	C192.571396,404.323792 196.268173,404.677826 199.964935,405.031830 
z"/>
<path fill="#2676E0" opacity="1.000000" stroke="none" 
	d="
M190.065430,306.377563 
	C194.200577,307.145966 198.399673,308.278473 202.862106,309.674377 
	C202.937805,309.955658 202.750153,309.973541 202.280334,310.010254 
	C198.041916,308.933228 194.085648,307.837433 190.065430,306.377563 
z"/>
<path fill="#2676E0" opacity="1.000000" stroke="none" 
	d="
M204.215149,310.238647 
	C205.806396,310.095520 207.659180,310.246918 209.767151,310.693451 
	C208.173782,310.836731 206.325226,310.684937 204.215149,310.238647 
z"/>
<path fill="#237BDC" opacity="1.000000" stroke="none" 
	d="
M306.274902,290.953094 
	C306.449341,290.646179 306.925964,290.333557 307.702820,290.006836 
	C307.527710,290.310944 307.052399,290.629150 306.274902,290.953094 
z"/>
<path fill="#155CDB" opacity="1.000000" stroke="none" 
	d="
M239.900116,266.433350 
	C239.573120,262.234161 239.288177,257.578735 239.003281,251.989960 
	C238.999847,237.370560 238.996338,223.684555 238.992844,209.998535 
	C238.993988,196.312408 238.995132,182.626266 238.994781,168.471893 
	C239.112335,163.217422 239.231369,158.431198 239.626328,153.346252 
	C239.915558,190.690750 239.928864,228.333969 239.900116,266.433350 
z"/>
<path fill="#0F50D2" opacity="1.000000" stroke="none" 
	d="
M238.617523,210.047607 
	C238.996338,223.684555 238.999847,237.370560 239.000626,251.524323 
	C237.454178,253.081604 235.910431,254.171127 233.900024,255.590012 
	C233.174881,255.272598 231.896027,254.712799 230.515839,254.108643 
	C229.985077,254.788132 229.582382,255.293167 229.190979,255.806793 
	C228.126251,257.204010 227.354599,259.302368 225.953659,259.881439 
	C220.394043,262.179443 214.533707,263.755066 208.993362,266.092651 
	C205.492783,267.569611 202.358002,269.916016 199.066071,271.884064 
	C197.334579,272.919220 195.644882,274.027893 193.881378,275.004089 
	C193.176163,275.394440 192.263748,275.404572 191.546814,275.780609 
	C186.920105,278.207275 182.272278,280.600952 177.731842,283.182159 
	C174.995972,284.737518 171.561035,285.624481 171.269867,289.856964 
	C171.215027,290.654022 168.962158,291.299927 167.350586,292.028107 
	C166.977646,292.040649 166.965683,292.039795 166.812057,291.780823 
	C166.095718,291.355743 165.533020,291.189606 164.982971,291.010193 
	C164.995651,290.996948 164.985443,291.031036 164.883667,290.803253 
	C164.580597,290.289856 164.309753,290.107574 163.984665,290.014313 
	C164.000000,290.000000 163.971176,290.031372 163.874298,289.803894 
	C163.580002,289.290802 163.311813,289.110229 162.985840,289.017975 
	C162.998779,289.001221 162.965652,289.027283 162.857574,288.790100 
	C162.453659,288.382599 162.157822,288.212280 161.535217,287.975098 
	C156.776459,282.280273 152.344482,276.652313 147.912506,271.024353 
	C151.252808,267.724335 156.329880,268.979279 160.206375,264.836945 
	C164.698013,260.037262 169.294403,254.650909 175.124725,251.043198 
	C177.597382,249.513153 180.489639,248.678329 183.064728,247.292557 
	C186.540237,245.422241 191.135269,244.117279 193.027161,241.151703 
	C196.399826,235.865097 202.613708,235.609634 206.583481,231.545700 
	C208.935135,229.138275 213.058197,228.460098 216.389145,227.014526 
	C216.531876,226.952576 216.773148,227.060257 216.877747,226.976105 
	C221.871063,222.958038 227.751694,220.805695 233.660355,218.582489 
	C234.844604,218.136902 235.204315,215.577072 236.010696,214.026627 
	C236.705307,212.691040 237.494690,211.404739 238.617523,210.047607 
z"/>
<path fill="#2676E0" opacity="1.000000" stroke="none" 
	d="
M147.707321,270.910065 
	C152.344482,276.652313 156.776459,282.280273 161.669098,288.192474 
	C162.408371,288.660248 162.687012,288.843781 162.965652,289.027283 
	C162.965652,289.027283 162.998779,289.001221 163.084595,289.243713 
	C163.369141,289.768036 163.636063,289.949768 163.971176,290.031372 
	C163.971176,290.031372 164.000000,290.000000 164.087479,290.240173 
	C164.384933,290.752502 164.655106,290.936066 164.985443,291.031036 
	C164.985443,291.031036 164.995651,290.996948 165.146439,291.259399 
	C165.853378,291.694489 166.409531,291.867126 166.965683,292.039795 
	C166.965683,292.039795 166.977646,292.040649 166.968109,292.056091 
	C167.304611,292.819305 167.650681,293.567139 168.017776,294.624390 
	C165.527130,294.818787 163.015442,294.703735 160.503738,294.588684 
	C160.384842,295.286987 160.265930,295.985291 160.147018,296.683594 
	C161.813202,297.377228 163.693665,297.781921 165.100525,298.825226 
	C167.945740,300.935211 170.509537,303.421082 173.241180,305.689606 
	C174.233017,306.513275 175.290680,307.367188 176.466751,307.830383 
	C177.781525,308.348175 179.264862,308.438019 180.674835,308.714111 
	C179.279358,310.444153 178.029968,312.328918 176.428772,313.841125 
	C175.586929,314.636230 173.813919,314.465637 173.008453,315.275299 
	C170.377380,317.920166 166.925156,320.639221 171.596359,324.527313 
	C171.926361,324.802002 171.724899,325.715149 171.854584,327.465271 
	C168.878845,325.829163 166.647385,324.457367 164.287933,323.361023 
	C162.939941,322.734650 161.383484,322.556885 159.920883,322.177155 
	C160.376144,323.768158 160.814468,325.364349 161.297104,326.947021 
	C161.439301,327.413239 161.706818,327.841217 161.579681,328.637939 
	C159.013336,327.105865 156.870682,325.106506 154.535065,323.366058 
	C150.886154,320.646942 147.226120,317.904175 143.333862,315.565796 
	C141.263000,314.321686 139.024017,314.514801 139.011093,317.910919 
	C138.998474,321.225708 139.117676,324.545563 138.973999,327.854248 
	C138.755005,332.897369 138.359451,337.932800 138.038849,342.971497 
	C138.012024,312.963867 137.985184,282.956238 137.954193,252.481323 
	C138.862503,253.799423 139.774948,255.584824 140.864075,257.981415 
	C141.356537,259.074768 141.672302,259.556885 141.988083,260.039032 
	C142.143173,260.585419 142.298264,261.131805 142.729370,262.144043 
	C143.329483,263.077606 143.653549,263.545319 143.977615,264.013000 
	C143.977615,264.013000 144.000000,264.000000 144.012573,264.304596 
	C144.343201,265.077332 144.661224,265.545502 144.979263,266.013641 
	C144.979263,266.013641 145.000000,266.000000 145.017563,266.303009 
	C145.352356,267.076477 145.669586,267.546936 145.986816,268.017426 
	C145.986801,268.017426 146.000610,268.000000 146.020294,268.299347 
	C146.358566,269.071381 146.677124,269.544067 146.995697,270.016754 
	C147.081314,270.330536 147.250137,270.590210 147.707321,270.910065 
z"/>
<path fill="#0F50D2" opacity="1.000000" stroke="none" 
	d="
M141.972595,259.734131 
	C141.672302,259.556885 141.356537,259.074768 141.014618,258.291473 
	C141.311356,258.469971 141.634232,258.949585 141.972595,259.734131 
z"/>
<path fill="#0F50D2" opacity="1.000000" stroke="none" 
	d="
M143.963745,263.707886 
	C143.653549,263.545319 143.329483,263.077606 142.962845,262.315002 
	C143.263489,262.480988 143.606689,262.941895 143.963745,263.707886 
z"/>
<path fill="#0F50D2" opacity="1.000000" stroke="none" 
	d="
M144.966949,265.713013 
	C144.661224,265.545502 144.343201,265.077332 144.002441,264.312927 
	C144.304688,264.481903 144.629654,264.947113 144.966949,265.713013 
z"/>
<path fill="#0F50D2" opacity="1.000000" stroke="none" 
	d="
M145.971832,267.716187 
	C145.669586,267.546936 145.352356,267.076477 145.007614,266.310394 
	C145.305679,266.481506 145.631271,266.948212 145.971832,267.716187 
z"/>
<path fill="#0F50D2" opacity="1.000000" stroke="none" 
	d="
M146.977158,269.715057 
	C146.677124,269.544067 146.358566,269.071381 146.009689,268.302551 
	C146.305786,268.475403 146.632202,268.944366 146.977158,269.715057 
z"/>
<path fill="#186CE0" opacity="1.000000" stroke="none" 
	d="
M212.972260,519.663818 
	C212.604645,520.027527 212.336746,520.207581 212.054245,520.732422 
	C211.621704,521.031677 211.352859,521.209656 211.058868,521.723145 
	C209.520645,522.544922 208.079666,523.140076 206.331696,523.870728 
	C203.981445,524.361511 201.938202,524.716919 199.103516,525.209900 
	C191.277496,516.561096 182.835236,507.202087 174.344528,497.887207 
	C173.349380,496.795471 172.220291,495.391327 170.925812,495.081055 
	C164.824570,493.618591 161.969376,488.698242 158.495590,484.290680 
	C157.094742,482.513275 154.918121,481.369415 153.247726,479.776550 
	C151.320801,477.939178 149.563034,475.924408 147.589844,473.836365 
	C145.210068,472.698456 142.473358,471.389893 139.370758,470.040649 
	C139.001068,462.981903 138.997253,455.963776 138.995758,448.015930 
	C139.001373,443.389404 139.004654,439.692566 139.007935,435.995758 
	C146.445496,434.466125 146.131699,434.667297 150.567932,441.586975 
	C152.873215,445.182800 156.929794,447.621552 159.459381,451.115723 
	C163.557709,456.776825 168.658707,461.339569 173.776230,465.947418 
	C174.259705,466.382782 174.905869,466.820557 175.085938,467.382416 
	C177.948456,476.313873 184.565216,482.474396 190.942245,488.768036 
	C192.878433,490.678955 195.498001,491.891449 197.466660,493.776733 
	C200.729950,496.901794 203.698059,500.333374 206.838028,503.590027 
	C207.709473,504.493866 208.917068,505.106354 209.669861,506.083954 
	C210.706253,507.429932 211.373611,509.054382 212.353638,510.451080 
	C213.332291,511.845703 214.501526,513.106628 215.778625,514.691284 
	C215.965500,515.123230 215.960953,515.290100 215.949402,515.706787 
	C215.362061,516.450012 214.781708,516.943359 214.084076,517.702881 
	C213.642868,518.434570 213.318924,518.900085 212.972260,519.663818 
z"/>
<path fill="#155CDB" opacity="1.000000" stroke="none" 
	d="
M236.710266,473.755859 
	C235.416199,479.119904 233.842926,484.244415 232.108505,489.690247 
	C231.282104,490.025177 230.500946,489.815277 229.971130,490.090057 
	C227.312241,491.468933 224.757080,493.200531 222.229050,489.827179 
	C220.525803,487.554413 218.666550,485.398773 216.884033,483.185089 
	C215.855698,481.907959 215.088470,480.216003 213.774704,479.411102 
	C209.612686,476.861420 205.593491,474.359375 204.893967,468.916260 
	C204.839630,468.493500 204.400040,467.918762 204.005844,467.770813 
	C195.829910,464.702637 193.526505,456.273163 188.223938,450.593994 
	C185.401550,447.571106 182.307800,444.803253 179.383759,441.873199 
	C176.146790,438.629639 172.681290,435.553772 169.870941,431.969238 
	C168.361877,430.044525 170.405365,426.049774 166.406036,425.139496 
	C168.160797,417.618469 159.083664,415.204193 158.560318,408.515289 
	C158.395294,406.406097 155.682297,404.552063 154.328613,402.456482 
	C153.659805,401.421112 153.133438,400.119995 153.060410,398.907898 
	C152.880554,395.922974 153.000320,392.919983 153.357086,389.496460 
	C157.143494,391.045105 160.572433,393.021515 164.001389,394.997925 
	C164.308517,395.987122 164.314957,397.320801 164.979324,397.900726 
	C166.948593,399.619690 169.695862,400.655853 171.189667,402.664856 
	C173.784027,406.154022 175.577560,410.227844 177.888229,413.943787 
	C178.899994,415.570862 180.350082,416.927460 181.615387,418.394531 
	C185.417023,422.802246 189.167221,427.256348 193.053238,431.588501 
	C195.442108,434.251648 198.036911,436.730591 200.551575,439.280121 
	C201.482956,440.224457 203.023361,440.984100 203.310532,442.082886 
	C205.892670,451.963318 215.503082,455.641937 221.292328,462.665039 
	C222.170776,463.730804 223.843735,464.800598 225.115250,464.761597 
	C229.170944,464.637177 230.365814,466.825317 230.282959,469.363800 
	C232.721176,471.010620 234.576111,472.263489 236.710266,473.755859 
z"/>
<path fill="#1F6DD9" opacity="1.000000" stroke="none" 
	d="
M164.328049,395.141846 
	C160.572433,393.021515 157.143494,391.045105 153.358490,389.033020 
	C153.002426,388.997345 153.000000,389.000000 152.859726,388.709839 
	C151.813583,387.942841 150.907700,387.466034 150.001831,386.989197 
	C146.579742,383.994843 143.157639,381.000458 139.368683,377.550903 
	C139.001846,374.638062 139.001846,372.180420 139.001846,368.999054 
	C142.533859,368.999054 145.612427,369.361237 148.564789,368.905579 
	C152.097824,368.360352 155.559280,367.230530 158.984467,366.142120 
	C162.253952,365.103210 165.447601,363.819824 168.652390,362.586273 
	C169.801178,362.144104 170.885208,361.533661 171.998779,361.000000 
	C175.497574,365.882874 177.084183,372.214050 183.700974,374.743927 
	C185.459427,375.416260 186.382355,378.685059 187.360489,380.906342 
	C189.835175,386.526184 194.612305,389.617645 199.345612,393.068512 
	C202.769073,395.564423 205.210464,399.407379 208.735886,403.377106 
	C205.216049,403.836060 202.862549,404.142944 200.236984,404.740814 
	C196.268173,404.677826 192.571396,404.323792 188.440765,403.955597 
	C180.222824,401.056213 172.438766,398.170990 164.328049,395.141846 
z"/>
<path fill="#256FDC" opacity="1.000000" stroke="none" 
	d="
M171.999191,360.543457 
	C170.885208,361.533661 169.801178,362.144104 168.652390,362.586273 
	C165.447601,363.819824 162.253952,365.103210 158.984467,366.142120 
	C155.559280,367.230530 152.097824,368.360352 148.564789,368.905579 
	C145.612427,369.361237 142.533859,368.999054 139.001846,368.999054 
	C139.001846,372.180420 139.001846,374.638062 139.003967,377.546021 
	C139.005127,397.017365 139.004150,416.038361 139.005554,435.527588 
	C139.004654,439.692566 139.001373,443.389404 138.994781,447.547974 
	C138.991455,448.009766 138.522079,448.006470 138.287933,448.008057 
	C138.045715,421.309174 138.037628,394.608673 138.256378,367.332642 
	C138.737381,366.558197 138.911072,366.304169 139.350693,365.936035 
	C141.669479,364.192017 141.777054,362.840759 139.002045,361.537231 
	C138.679535,355.722565 138.359238,350.375519 138.038940,345.028503 
	C138.029739,344.571625 138.020554,344.114746 138.025116,343.314697 
	C138.359451,337.932800 138.755005,332.897369 138.973999,327.854248 
	C139.117676,324.545563 138.998474,321.225708 139.011093,317.910919 
	C139.024017,314.514801 141.263000,314.321686 143.333862,315.565796 
	C147.226120,317.904175 150.886154,320.646942 154.535065,323.366058 
	C156.870682,325.106506 159.013336,327.105865 161.620758,328.994568 
	C162.467560,329.319702 162.936035,329.639374 163.907715,330.242432 
	C165.273727,330.683868 166.136551,330.841919 166.999390,331.000000 
	C166.537994,332.554626 166.469269,334.414978 165.541611,335.606659 
	C162.747284,339.196228 163.952164,343.139130 166.649399,344.782898 
	C173.045364,348.680908 171.943939,354.414337 171.999191,360.543457 
z"/>
<path fill="#155CDB" opacity="1.000000" stroke="none" 
	d="
M150.053101,387.335327 
	C150.907700,387.466034 151.813583,387.942841 152.860840,388.708588 
	C152.036285,388.558838 151.070328,388.120148 150.053101,387.335327 
z"/>
<path fill="#6630DB" opacity="1.000000" stroke="none" 
	d="
M472.987244,257.007629 
	C472.991547,285.359680 472.995819,313.711700 472.645447,342.495117 
	C467.497162,339.413940 465.391724,334.828064 465.797485,328.772186 
	C466.140533,323.652008 462.453461,318.749451 464.622894,313.404449 
	C464.707581,313.195801 464.336670,312.826660 464.233917,312.513916 
	C462.151459,306.175629 460.193054,299.792877 457.930634,293.519684 
	C457.251892,291.637726 456.119812,289.237610 454.527924,288.483032 
	C447.131897,284.977173 449.315887,277.245941 446.719910,271.682922 
	C445.673340,269.440186 445.887848,266.626160 445.414368,264.093445 
	C445.031647,262.046112 444.477905,260.030762 444.316864,257.832764 
	C445.062347,256.981354 446.005859,256.120270 445.840637,255.642792 
	C444.023468,250.391434 447.904053,247.892456 450.671814,244.664413 
	C451.933624,243.192764 452.253113,240.913162 453.365295,239.004486 
	C454.720673,239.680115 455.974976,240.158325 456.638855,241.067612 
	C457.638092,242.436188 458.259644,244.090027 458.978943,245.651550 
	C460.678314,249.340790 462.420502,253.013535 463.992798,256.757019 
	C465.265381,259.786926 466.315369,262.910278 467.774506,266.824921 
	C469.966919,262.695953 471.477081,259.851807 472.987244,257.007629 
z"/>
<path fill="#6335DE" opacity="1.000000" stroke="none" 
	d="
M453.000000,239.000000 
	C452.253113,240.913162 451.933624,243.192764 450.671814,244.664413 
	C447.904053,247.892456 444.023468,250.391434 445.840637,255.642792 
	C446.005859,256.120270 445.062347,256.981354 443.937347,257.789673 
	C441.493164,257.611267 439.745361,257.307465 437.997559,256.604462 
	C437.079926,254.052689 436.530914,251.623840 435.167847,249.805099 
	C432.340393,246.032455 429.080719,242.583725 426.162781,238.625641 
	C426.492371,235.496902 426.948059,232.724884 426.765167,229.995667 
	C426.340088,223.652817 425.607025,217.330582 424.998779,211.000000 
	C425.624878,210.278580 426.603607,209.649292 426.820129,208.820847 
	C428.298737,203.162323 429.617279,197.461960 430.993713,191.387543 
	C436.547943,191.339676 438.240967,196.796249 439.300507,199.993195 
	C440.705353,204.232056 442.982513,205.054810 446.617462,206.379105 
	C449.000366,217.563980 451.000183,228.281982 453.000000,239.000000 
z"/>
<path fill="#602FD7" opacity="1.000000" stroke="none" 
	d="
M437.997559,257.003662 
	C439.745361,257.307465 441.493164,257.611267 443.620483,257.958130 
	C444.477905,260.030762 445.031647,262.046112 445.414368,264.093445 
	C445.887848,266.626160 445.673340,269.440186 446.719910,271.682922 
	C449.315887,277.245941 447.131897,284.977173 454.527924,288.483032 
	C456.119812,289.237610 457.251892,291.637726 457.930634,293.519684 
	C460.193054,299.792877 462.151459,306.175629 464.233917,312.513916 
	C464.336670,312.826660 464.707581,313.195801 464.622894,313.404449 
	C462.453461,318.749451 466.140533,323.652008 465.797485,328.772186 
	C465.391724,334.828064 467.497162,339.413940 472.641785,342.963867 
	C472.995972,345.698700 472.999146,348.396210 472.645020,351.509308 
	C470.840820,350.116547 469.250763,348.403229 467.974609,346.481445 
	C464.578491,341.367004 461.317596,336.162811 457.856201,330.694885 
	C455.476044,327.926758 453.242584,325.458008 450.902710,322.770081 
	C450.599365,322.276978 450.340332,322.088379 449.987976,321.666016 
	C449.302612,320.572113 448.648468,319.797241 447.710876,318.883667 
	C446.288177,317.825195 445.148987,316.905396 443.871338,315.675598 
	C441.818115,312.920135 439.903320,310.474701 437.993896,307.690704 
	C437.999481,306.901031 437.999725,306.449921 438.395233,305.986633 
	C439.524261,305.099060 440.669281,304.329010 440.925018,303.331055 
	C442.592834,296.823517 438.981720,292.060272 435.333923,287.376312 
	C439.433655,277.509979 437.579529,267.157593 437.997559,257.003662 
M447.780426,308.768890 
	C446.170837,307.765137 444.561279,306.761353 442.951691,305.757599 
	C442.510376,306.433716 442.069092,307.109863 441.627777,307.786011 
	C443.281555,309.057190 444.935333,310.328369 446.589142,311.599609 
	C447.037109,310.898010 447.485046,310.196411 447.780426,308.768890 
z"/>
<path fill="#6A34E0" opacity="1.000000" stroke="none" 
	d="
M453.365295,239.004486 
	C451.000183,228.281982 449.000366,217.563980 447.000885,206.422989 
	C453.044403,204.438889 459.087555,202.877762 465.499664,201.221344 
	C466.561890,202.969208 467.667816,204.789017 469.462250,207.741806 
	C469.963867,202.115601 470.349182,197.793640 470.734497,193.471664 
	C471.488770,193.517670 472.243011,193.563675 472.997284,193.609665 
	C472.997284,214.429306 472.997284,235.248932 472.992279,256.538086 
	C471.477081,259.851807 469.966919,262.695953 467.774506,266.824921 
	C466.315369,262.910278 465.265381,259.786926 463.992798,256.757019 
	C462.420502,253.013535 460.678314,249.340790 458.978943,245.651550 
	C458.259644,244.090027 457.638092,242.436188 456.638855,241.067612 
	C455.974976,240.158325 454.720673,239.680115 453.365295,239.004486 
z"/>
<path fill="#5D40D9" opacity="1.000000" stroke="none" 
	d="
M458.002899,330.994324 
	C461.317596,336.162811 464.578491,341.367004 467.974609,346.481445 
	C469.250763,348.403229 470.840820,350.116547 472.643250,351.958801 
	C472.997803,380.687866 472.996826,409.383057 472.987671,438.549042 
	C470.857941,436.116089 468.736420,433.212341 466.272583,429.801727 
	C461.944580,422.867249 457.958862,416.439636 454.353302,410.047791 
	C456.842865,410.784210 458.952271,411.484802 462.000000,412.497040 
	C462.000000,404.526581 461.835754,397.507721 462.044373,390.499939 
	C462.271088,382.885956 463.081177,375.286011 463.202667,367.673035 
	C463.334137,359.435822 463.036560,351.187927 462.731628,342.951904 
	C462.687805,341.768616 461.417450,340.677582 460.951874,339.453613 
	C459.890686,336.663605 458.976715,333.817566 458.002899,330.994324 
z"/>
<path fill="#4537D5" opacity="1.000000" stroke="none" 
	d="
M416.000000,467.998779 
	C415.683197,468.078247 415.128143,468.090393 415.083893,468.246918 
	C413.308960,474.524780 408.521118,477.289032 402.371002,478.957764 
	C400.210541,477.364471 398.419891,475.727753 396.392731,473.874847 
	C395.705048,474.648743 395.011444,475.283234 394.493317,476.038177 
	C392.409027,479.075104 390.606232,478.740173 389.047607,475.621155 
	C385.714172,468.950287 380.483887,465.497498 372.457428,465.986237 
	C372.017181,443.963379 372.009705,421.947601 372.406677,399.415588 
	C377.150146,399.192200 381.812958,400.644623 385.762421,399.542023 
	C394.606476,397.072906 395.767181,403.990692 398.886749,408.772064 
	C399.246185,409.322937 399.540894,409.929993 399.777527,410.544891 
	C401.601746,415.285522 405.168549,417.904602 410.042725,419.381958 
	C410.673248,422.150879 412.289246,424.853424 411.673187,426.876129 
	C408.812592,436.268188 413.319092,445.196136 412.888123,454.441345 
	C412.680206,458.902466 414.886719,463.476105 416.000000,467.998779 
z"/>
<path fill="#512ED0" opacity="1.000000" stroke="none" 
	d="
M453.973145,410.012024 
	C457.958862,416.439636 461.944580,422.867249 465.967285,429.646179 
	C462.270905,426.958313 458.546204,423.908295 454.793060,420.893585 
	C454.332245,420.523407 453.719788,420.341949 452.071411,419.524323 
	C453.998138,428.153381 449.008850,430.276642 442.677277,431.453522 
	C441.914032,431.595428 441.608185,433.905670 440.986237,435.159271 
	C439.566620,438.020691 438.082428,440.850037 435.945404,443.803040 
	C434.178894,442.066010 432.928467,440.292542 432.044830,438.352020 
	C430.913910,435.868530 430.808380,432.283630 428.964081,430.891449 
	C425.111084,427.983002 425.055573,423.972351 424.030365,420.123810 
	C423.748596,419.066193 423.347534,418.040375 423.040222,416.637024 
	C426.102173,409.121887 429.125214,401.969696 431.924469,395.346954 
	C435.404175,396.491516 437.700867,397.246979 440.004578,398.374298 
	C441.010864,399.496002 442.010132,400.245850 443.004700,400.998474 
	C443.000000,401.001221 443.001556,400.992065 443.110260,401.215942 
	C443.423523,401.719025 443.692627,401.904816 444.324402,402.143982 
	C447.739441,404.864532 450.856293,407.438263 453.973145,410.012024 
z"/>
<path fill="#4C33D5" opacity="1.000000" stroke="none" 
	d="
M423.001221,417.000000 
	C423.347534,418.040375 423.748596,419.066193 424.030365,420.123810 
	C425.055573,423.972351 425.111084,427.983002 428.964081,430.891449 
	C430.808380,432.283630 430.913910,435.868530 432.044830,438.352020 
	C432.928467,440.292542 434.178894,442.066010 435.633179,443.956848 
	C436.000122,445.066986 436.000244,446.133942 436.000793,447.601074 
	C434.538940,448.079681 433.076630,448.158112 431.858734,448.223450 
	C432.148285,452.132202 432.591309,455.736816 432.579376,459.339935 
	C432.575592,460.480927 431.606354,462.285431 430.651917,462.641388 
	C426.480804,464.197052 426.012756,467.766876 425.152832,471.651611 
	C422.238342,470.690918 419.475464,469.380615 416.356262,468.034546 
	C414.886719,463.476105 412.680206,458.902466 412.888123,454.441345 
	C413.319092,445.196136 408.812592,436.268188 411.673187,426.876129 
	C412.289246,424.853424 410.673248,422.150879 410.468506,419.380981 
	C414.901459,418.333618 418.951324,417.666809 423.001221,417.000000 
z"/>
<path fill="#5B3ADE" opacity="1.000000" stroke="none" 
	d="
M424.623474,211.041809 
	C425.607025,217.330582 426.340088,223.652817 426.765167,229.995667 
	C426.948059,232.724884 426.492371,235.496902 425.765930,238.626312 
	C421.066833,238.778687 420.579163,241.638702 419.928223,244.784546 
	C419.278351,247.925156 418.001038,250.935944 416.728149,253.773605 
	C415.296448,251.319016 414.135406,249.094452 412.620117,246.191101 
	C412.785492,245.614868 413.219116,244.103668 413.597992,242.783371 
	C411.158386,241.884628 409.084045,240.830872 406.886871,240.391739 
	C404.654297,239.945557 402.300629,240.105515 400.000000,240.000000 
	C398.591919,232.245987 397.090576,224.507202 395.820496,216.730667 
	C395.292786,213.499725 395.258728,210.188171 395.000732,206.457245 
	C397.075958,206.366318 399.138519,206.843109 401.228210,207.071381 
	C404.705841,207.451279 408.241089,207.441940 411.673889,208.043030 
	C413.835449,208.421509 415.799072,209.833496 417.953613,210.376923 
	C419.982178,210.888580 422.144623,210.869308 424.623474,211.041809 
z"/>
<path fill="#3F66DB" opacity="1.000000" stroke="none" 
	d="
M370.822021,372.182953 
	C372.613495,371.765778 374.393677,371.382080 376.994751,370.998779 
	C380.714081,369.752777 383.964172,368.944244 386.334259,367.040253 
	C387.255890,366.299835 386.165833,363.089539 386.042999,361.001282 
	C385.974609,359.839050 386.002014,358.670624 386.001465,357.505005 
	C385.998047,350.510376 385.992310,343.515778 386.002106,336.521149 
	C386.005676,333.960297 385.815308,331.369812 386.135315,328.846344 
	C386.523651,325.784302 387.861786,322.785767 387.902985,319.747711 
	C388.014221,311.552490 387.655121,303.350861 387.470978,294.596527 
	C388.059601,294.317688 389.554901,293.609375 390.811707,293.014008 
	C390.818726,290.084625 383.507111,289.832092 389.434937,285.995850 
	C392.901459,286.334534 395.945984,286.673706 399.163879,287.327820 
	C400.854309,288.446655 402.371368,289.250580 403.888092,290.054352 
	C403.022705,291.825470 402.248901,293.409119 401.475098,294.992798 
	C401.874878,295.191101 402.274658,295.389435 402.674438,295.587769 
	C403.884399,294.830109 405.094360,294.072449 407.352051,292.658722 
	C406.301147,295.723236 405.205139,297.497803 405.158264,299.299713 
	C404.944397,307.520355 405.131714,315.750641 404.975220,323.973724 
	C404.735504,336.567749 404.340851,349.158997 403.979919,361.750458 
	C403.952057,362.722900 403.901031,363.806885 403.470764,364.636902 
	C401.111908,369.187378 401.926575,372.317169 407.427887,375.845245 
	C403.854248,375.524567 401.373688,375.301971 398.673035,375.081299 
	C398.452942,375.083221 398.014130,375.047821 397.781006,374.762085 
	C396.330658,374.343658 395.113403,374.210938 393.445648,374.069275 
	C385.616364,373.462952 378.237610,372.865570 370.858856,372.268188 
	C370.858856,372.268188 370.810760,372.216431 370.822021,372.182953 
z"/>
<path fill="#396CDC" opacity="1.000000" stroke="none" 
	d="
M389.012970,285.996338 
	C383.507111,289.832092 390.818726,290.084625 390.811707,293.014008 
	C389.554901,293.609375 388.059601,294.317688 387.470978,294.596527 
	C387.655121,303.350861 388.014221,311.552490 387.902985,319.747711 
	C387.861786,322.785767 386.523651,325.784302 386.135315,328.846344 
	C385.815308,331.369812 386.005676,333.960297 386.002106,336.521149 
	C385.992310,343.515778 385.998047,350.510376 386.001465,357.505005 
	C386.002014,358.670624 385.974609,359.839050 386.042999,361.001282 
	C386.165833,363.089539 387.255890,366.299835 386.334259,367.040253 
	C383.964172,368.944244 380.714081,369.752777 377.408020,370.995911 
	C375.386475,370.321594 373.641754,369.851379 372.201782,368.913330 
	C371.129211,368.214630 369.689514,366.891235 369.715088,365.878906 
	C369.968781,355.831879 371.506226,345.694427 370.554504,335.786804 
	C370.001984,330.034546 372.493988,325.558899 372.880188,320.462677 
	C373.386749,313.778503 373.008270,307.027130 373.007721,300.304657 
	C373.007263,294.803345 373.002869,289.302002 373.380249,283.561584 
	C378.844482,284.213745 383.928741,285.105042 389.012970,285.996338 
z"/>
<path fill="#465EDB" opacity="1.000000" stroke="none" 
	d="
M389.434937,285.995850 
	C383.928741,285.105042 378.844482,284.213745 373.382019,283.162415 
	C372.111725,282.491180 371.219696,281.979980 370.181274,281.197784 
	C370.034851,280.926788 370.388245,280.837769 370.905945,280.864441 
	C371.648743,280.894501 371.873779,280.897919 372.509857,280.933472 
	C380.611359,282.316406 388.301880,283.667236 395.997192,285.009705 
	C396.002045,285.001343 395.985077,285.006836 396.193115,285.268066 
	C397.268646,285.687103 398.136169,285.844879 399.001831,286.001343 
	C399.000000,286.000000 398.996948,285.997559 399.010071,286.232269 
	C399.023193,286.466980 399.063507,286.935394 399.045044,286.954559 
	C399.026611,286.973724 398.990540,287.012878 398.990540,287.012878 
	C395.945984,286.673706 392.901459,286.334534 389.434937,285.995850 
z"/>
<path fill="#452ECC" opacity="1.000000" stroke="none" 
	d="
M370.882996,372.643188 
	C378.237610,372.865570 385.616364,373.462952 393.704193,374.325195 
	C395.613556,374.742645 396.813843,374.895233 398.014130,375.047821 
	C398.014130,375.047821 398.452942,375.083221 398.913147,375.350159 
	C404.217743,377.100006 409.062134,378.582947 414.087708,380.359161 
	C420.841492,384.441742 427.414062,388.231049 434.131775,392.303711 
	C435.172394,393.064758 436.067841,393.542450 437.106628,394.300903 
	C438.170593,395.717163 439.091187,396.852631 440.007812,397.992157 
	C440.003815,397.996185 439.997559,398.002441 439.997559,398.002441 
	C437.700867,397.246979 435.404175,396.491516 431.924469,395.346954 
	C429.125214,401.969696 426.102173,409.121887 423.040192,416.637024 
	C418.951324,417.666809 414.901459,418.333618 410.425781,419.001434 
	C405.168549,417.904602 401.601746,415.285522 399.777527,410.544891 
	C399.540894,409.929993 399.246185,409.322937 398.886749,408.772064 
	C395.767181,403.990692 394.606476,397.072906 385.762421,399.542023 
	C381.812958,400.644623 377.150146,399.192200 372.413086,398.946564 
	C371.895081,391.548462 371.775116,384.103180 371.378052,376.358948 
	C371.036346,375.046051 370.971710,374.032135 370.882996,372.643188 
z"/>
<path fill="#5237D9" opacity="1.000000" stroke="none" 
	d="
M399.697021,240.153015 
	C402.300629,240.105515 404.654297,239.945557 406.886871,240.391739 
	C409.084045,240.830872 411.158386,241.884628 413.597992,242.783371 
	C413.219116,244.103668 412.785492,245.614868 412.620117,246.191101 
	C414.135406,249.094452 415.296448,251.319016 416.735474,254.171219 
	C417.678467,258.975800 417.900970,263.285095 419.102417,267.301575 
	C421.464325,275.197693 424.408356,282.918457 427.006805,290.746521 
	C427.362549,291.818298 427.411377,293.181274 427.077728,294.244873 
	C426.655670,295.590240 425.696106,296.766998 424.641174,298.013855 
	C423.877045,298.004883 423.440125,297.998535 422.865845,297.714844 
	C421.813171,296.642487 420.897797,295.847473 419.988403,294.727966 
	C418.986969,293.944672 417.979584,293.485840 416.984131,293.012390 
	C416.996063,292.997711 416.986908,293.033264 416.827759,292.776855 
	C416.105255,292.351501 415.541870,292.182556 414.990112,292.006470 
	C415.001740,291.999298 414.993744,292.025818 414.832581,291.701080 
	C413.108887,290.919495 411.546295,290.462646 409.992493,290.001801 
	C410.001221,289.997803 410.000580,290.017120 409.838135,289.762939 
	C409.110962,289.342621 408.546173,289.176453 407.991333,289.004456 
	C408.001221,288.998566 407.997742,289.021057 407.795135,288.728821 
	C404.727325,287.623566 401.862152,286.810547 398.996948,285.997559 
	C398.996948,285.997559 399.000000,286.000000 398.797424,285.734772 
	C397.724945,285.315308 396.855011,285.161072 395.985077,285.006836 
	C395.985077,285.006836 396.002045,285.001343 396.002991,284.749359 
	C396.003418,284.323853 396.002930,284.150360 396.157043,283.677826 
	C398.684937,283.378754 401.058258,283.378754 404.482880,283.378754 
	C402.849915,280.420105 401.431946,277.851013 399.897583,275.071014 
	C401.264343,274.038696 402.507141,273.100006 403.188599,272.585297 
	C401.581787,270.168854 399.633606,268.297607 398.974884,266.048645 
	C397.041046,259.446259 395.619629,252.693741 393.997559,246.000000 
	C395.796387,244.102005 397.595215,242.204025 399.697021,240.153015 
z"/>
<path fill="#4C3BDC" opacity="1.000000" stroke="none" 
	d="
M393.647034,246.035721 
	C395.619629,252.693741 397.041046,259.446259 398.974884,266.048645 
	C399.633606,268.297607 401.581787,270.168854 403.188599,272.585297 
	C402.507141,273.100006 401.264343,274.038696 399.897583,275.071014 
	C401.431946,277.851013 402.849915,280.420105 404.482880,283.378754 
	C401.058258,283.378754 398.684937,283.378754 395.768982,283.638580 
	C391.866882,282.998199 388.554291,281.703857 385.136139,281.297241 
	C380.835541,280.785675 376.448547,281.000122 372.098846,280.901337 
	C371.873779,280.897919 371.648743,280.894501 371.087585,280.850098 
	C370.819824,280.397766 370.888153,279.986481 371.291931,278.971680 
	C371.754456,265.246765 371.881500,252.125351 372.008545,239.003937 
	C377.726074,238.762527 375.233490,243.559769 376.166046,245.709564 
	C382.028992,249.649719 387.676453,252.220291 393.647034,246.035721 
z"/>
<path fill="#5E3EE4" opacity="1.000000" stroke="none" 
	d="
M372.004333,238.550720 
	C371.881500,252.125351 371.754456,265.246765 371.339233,278.661499 
	C371.009979,262.287262 370.968872,245.619736 370.972717,228.487854 
	C371.345154,231.381500 371.672638,234.739502 372.004333,238.550720 
z"/>
<path fill="#2676E0" opacity="1.000000" stroke="none" 
	d="
M138.026047,345.493835 
	C138.359238,350.375519 138.679535,355.722565 139.000702,361.936188 
	C139.002472,363.866913 139.003372,364.931000 139.004272,365.995117 
	C138.911072,366.304169 138.737381,366.558197 138.276031,366.862366 
	C138.050278,359.964813 138.031708,352.962006 138.026047,345.493835 
z"/>
<path fill="#2676E0" opacity="1.000000" stroke="none" 
	d="
M184.187927,304.286987 
	C185.570847,304.448456 187.105881,304.942535 188.874451,305.696564 
	C187.518677,305.510834 185.929352,305.065186 184.187927,304.286987 
z"/>
<path fill="#2676E0" opacity="1.000000" stroke="none" 
	d="
M166.955322,330.675354 
	C166.136551,330.841919 165.273727,330.683868 164.205750,330.263123 
	C164.970825,330.117157 165.941025,330.233917 166.955322,330.675354 
z"/>
<path fill="#2676E0" opacity="1.000000" stroke="none" 
	d="
M182.181793,303.214233 
	C182.584290,303.123810 183.140152,303.293427 183.861603,303.708191 
	C183.463181,303.793610 182.899185,303.633942 182.181793,303.214233 
z"/>
<path fill="#2676E0" opacity="1.000000" stroke="none" 
	d="
M180.133392,302.204712 
	C180.534424,302.119690 181.106522,302.291870 181.854874,302.710876 
	C181.455566,302.792389 180.880020,302.627136 180.133392,302.204712 
z"/>
<path fill="#2676E0" opacity="1.000000" stroke="none" 
	d="
M168.208435,295.226990 
	C168.614334,295.132843 169.177780,295.303406 169.926849,295.714386 
	C169.530304,295.800446 168.948135,295.646088 168.208435,295.226990 
z"/>
<path fill="#0F46CB" opacity="1.000000" stroke="none" 
	d="
M166.812057,291.780823 
	C166.409531,291.867126 165.853378,291.694489 165.133759,291.272644 
	C165.533020,291.189606 166.095718,291.355743 166.812057,291.780823 
z"/>
<path fill="#0F46CB" opacity="1.000000" stroke="none" 
	d="
M162.857574,288.790100 
	C162.687012,288.843781 162.408371,288.660248 161.995850,288.259338 
	C162.157822,288.212280 162.453659,288.382599 162.857574,288.790100 
z"/>
<path fill="#0F46CB" opacity="1.000000" stroke="none" 
	d="
M163.874298,289.803894 
	C163.636063,289.949768 163.369141,289.768036 163.071655,289.260437 
	C163.311813,289.110229 163.580002,289.290802 163.874298,289.803894 
z"/>
<path fill="#0F46CB" opacity="1.000000" stroke="none" 
	d="
M164.883667,290.803253 
	C164.655106,290.936066 164.384933,290.752502 164.072144,290.254517 
	C164.309753,290.107574 164.580597,290.289856 164.883667,290.803253 
z"/>
<path fill="#1F6DD9" opacity="1.000000" stroke="none" 
	d="
M139.350708,365.936035 
	C139.003372,364.931000 139.002472,363.866913 139.002930,362.403839 
	C141.777054,362.840759 141.669479,364.192017 139.350708,365.936035 
z"/>
<path fill="#5732D6" opacity="1.000000" stroke="none" 
	d="
M424.968384,298.016479 
	C425.696106,296.766998 426.655670,295.590240 427.077728,294.244873 
	C427.411377,293.181274 427.362549,291.818298 427.006805,290.746521 
	C424.408356,282.918457 421.464325,275.197693 419.102417,267.301575 
	C417.900970,263.285095 417.678467,258.975800 417.006104,254.401245 
	C418.001038,250.935944 419.278351,247.925156 419.928223,244.784546 
	C420.579163,241.638702 421.066833,238.778687 425.601868,239.002487 
	C429.080719,242.583725 432.340393,246.032455 435.167847,249.805099 
	C436.530914,251.623840 437.079926,254.052689 437.997559,256.604462 
	C437.579529,267.157593 439.433655,277.509979 435.333923,287.376312 
	C438.981720,292.060272 442.592834,296.823517 440.925018,303.331055 
	C440.669281,304.329010 439.524261,305.099060 438.098389,305.860870 
	C436.595551,305.505646 435.784851,305.264038 434.983307,305.010376 
	C434.992462,304.998322 434.986877,305.024292 434.827454,304.771179 
	C434.109863,304.346100 433.551666,304.174164 432.996735,304.001099 
	C433.000000,304.000000 432.999451,304.006409 432.893585,303.783813 
	C432.587067,303.283264 432.321625,303.098236 431.995667,303.003113 
	C432.000000,303.000000 431.993774,303.008759 431.889832,302.785980 
	C431.586639,302.284515 431.321533,302.101044 430.993439,302.006989 
	C430.996338,302.001221 430.982361,302.014404 430.980225,301.634094 
	C428.979095,300.173248 426.980133,299.092682 424.987488,298.007446 
	C424.993774,298.002838 424.968384,298.016479 424.968384,298.016479 
z"/>
<path fill="#4D54DA" opacity="1.000000" stroke="none" 
	d="
M433.986633,392.020355 
	C427.414062,388.231049 420.841492,384.441742 414.465698,380.298096 
	C418.904816,378.448456 421.316772,376.036835 419.640961,371.086487 
	C419.291931,370.055450 420.048126,368.631012 420.351471,367.401794 
	C421.555481,362.523163 423.392334,357.710022 423.878204,352.762939 
	C425.038757,340.946869 422.210144,328.906128 425.851807,317.161255 
	C426.330139,315.618622 425.847473,313.366150 425.007080,311.903809 
	C422.508453,307.555939 423.414520,303.737091 426.369354,299.996124 
	C428.133698,300.699493 429.558014,301.356964 430.982361,302.014404 
	C430.982361,302.014404 430.996338,302.001221 431.099121,302.227966 
	C431.404266,302.727417 431.668213,302.912109 431.993774,303.008759 
	C431.993774,303.008759 432.000000,303.000000 432.103088,303.224304 
	C432.407806,303.723846 432.672241,303.909790 432.999451,304.006409 
	C432.999451,304.006409 433.000000,304.000000 433.164673,304.245758 
	C433.881866,304.669128 434.434387,304.846710 434.986877,305.024292 
	C434.986877,305.024292 434.992462,304.998322 435.023132,305.347198 
	C436.032074,306.473785 437.010315,307.251495 437.988525,308.029236 
	C439.903320,310.474701 441.818115,312.920135 443.812439,316.023376 
	C441.740662,316.681152 439.589325,316.681152 436.729156,316.681152 
	C437.821350,320.177338 438.860016,323.417053 439.841095,326.674103 
	C440.451569,328.700836 441.613831,330.813354 441.430054,332.784973 
	C440.483368,342.940277 439.050110,353.049469 438.047058,363.200500 
	C437.317078,370.587830 440.182495,378.557892 433.671448,384.671692 
	C439.320801,388.153656 439.285522,388.974915 433.986633,392.020355 
z"/>
<path fill="#524ED9" opacity="1.000000" stroke="none" 
	d="
M434.131775,392.303711 
	C439.285522,388.974915 439.320801,388.153656 433.671448,384.671692 
	C440.182495,378.557892 437.317078,370.587830 438.047058,363.200500 
	C439.050110,353.049469 440.483368,342.940277 441.430054,332.784973 
	C441.613831,330.813354 440.451569,328.700836 439.841095,326.674103 
	C438.860016,323.417053 437.821350,320.177338 436.729156,316.681152 
	C439.589325,316.681152 441.740662,316.681152 443.950867,316.333374 
	C445.148987,316.905396 446.288177,317.825195 447.717651,319.236023 
	C448.678345,320.479706 449.348755,321.232391 450.019165,321.985077 
	C450.340332,322.088379 450.599365,322.276978 450.899048,323.206543 
	C451.291443,326.143097 451.606232,328.421204 451.864471,330.705658 
	C452.213806,333.796265 452.919128,336.913727 452.750977,339.980103 
	C452.498108,344.590363 450.274628,349.488220 451.279938,353.692017 
	C453.596405,363.378418 450.246094,372.688934 450.816132,382.210541 
	C451.158142,387.923584 449.681732,393.745483 448.964752,400.024933 
	C447.096710,399.715607 445.033966,399.374054 442.978882,399.023743 
	C442.986572,399.015015 442.972168,399.025055 442.947205,398.670776 
	C440.935913,396.884369 438.949615,395.452240 436.963318,394.020142 
	C436.067841,393.542450 435.172394,393.064758 434.131775,392.303711 
z"/>
<path fill="#5647D9" opacity="1.000000" stroke="none" 
	d="
M442.971222,399.032471 
	C445.033966,399.374054 447.096710,399.715607 448.964752,400.024933 
	C449.681732,393.745483 451.158142,387.923584 450.816132,382.210541 
	C450.246094,372.688934 453.596405,363.378418 451.279938,353.692017 
	C450.274628,349.488220 452.498108,344.590363 452.750977,339.980103 
	C452.919128,336.913727 452.213806,333.796265 451.864471,330.705658 
	C451.606232,328.421204 451.291443,326.143097 451.005432,323.425720 
	C453.242584,325.458008 455.476044,327.926758 457.856201,330.694885 
	C458.976715,333.817566 459.890686,336.663605 460.951874,339.453613 
	C461.417450,340.677582 462.687805,341.768616 462.731628,342.951904 
	C463.036560,351.187927 463.334137,359.435822 463.202667,367.673035 
	C463.081177,375.286011 462.271088,382.885956 462.044373,390.499939 
	C461.835754,397.507721 462.000000,404.526581 462.000000,412.497040 
	C458.952271,411.484802 456.842865,410.784210 454.353333,410.047791 
	C450.856293,407.438263 447.739441,404.864532 444.210449,401.924072 
	C443.593933,401.282623 443.328339,401.094208 443.001556,400.992065 
	C443.001556,400.992065 443.000000,401.001221 442.997620,400.671143 
	C442.987274,399.904846 442.979248,399.468689 442.971222,399.032471 
z"/>
<path fill="#5732D6" opacity="1.000000" stroke="none" 
	d="
M447.856720,309.131866 
	C447.485046,310.196411 447.037109,310.898010 446.589111,311.599609 
	C444.935333,310.328369 443.281555,309.057190 441.627777,307.786011 
	C442.069092,307.109863 442.510376,306.433716 442.951691,305.757599 
	C444.561279,306.761353 446.170837,307.765137 447.856720,309.131866 
z"/>
<path fill="#512ED0" opacity="1.000000" stroke="none" 
	d="
M437.993896,307.690704 
	C437.010315,307.251495 436.032074,306.473785 435.013977,305.359253 
	C435.784851,305.264038 436.595551,305.505646 437.703125,305.873016 
	C437.999725,306.449921 437.999481,306.901031 437.993896,307.690704 
z"/>
<path fill="#5647D9" opacity="1.000000" stroke="none" 
	d="
M449.987976,321.666016 
	C449.348755,321.232391 448.678345,320.479706 448.001129,319.374695 
	C448.648468,319.797241 449.302612,320.572113 449.987976,321.666016 
z"/>
<path fill="#452ECC" opacity="1.000000" stroke="none" 
	d="
M442.978882,399.023743 
	C442.979248,399.468689 442.987274,399.904846 443.002319,400.668365 
	C442.010132,400.245850 441.010864,399.496002 440.004578,398.374298 
	C439.997559,398.002441 440.003815,397.996185 440.299927,398.117493 
	C441.388092,398.500854 442.180145,398.762970 442.972168,399.025055 
	C442.972168,399.025055 442.986572,399.015015 442.978882,399.023743 
z"/>
<path fill="#452ECC" opacity="1.000000" stroke="none" 
	d="
M443.110260,401.215942 
	C443.328339,401.094208 443.593933,401.282623 443.912292,401.777252 
	C443.692627,401.904816 443.423523,401.719025 443.110260,401.215942 
z"/>
<path fill="#465EDB" opacity="1.000000" stroke="none" 
	d="
M426.029358,299.950195 
	C423.414520,303.737091 422.508453,307.555939 425.007080,311.903809 
	C425.847473,313.366150 426.330139,315.618622 425.851807,317.161255 
	C422.210144,328.906128 425.038757,340.946869 423.878204,352.762939 
	C423.392334,357.710022 421.555481,362.523163 420.351471,367.401794 
	C420.048126,368.631012 419.291931,370.055450 419.640961,371.086487 
	C421.316772,376.036835 418.904816,378.448456 414.284485,380.004791 
	C409.062134,378.582947 404.217743,377.100006 399.133270,375.348206 
	C401.373688,375.301971 403.854248,375.524567 407.427887,375.845245 
	C401.926575,372.317169 401.111908,369.187378 403.470764,364.636902 
	C403.901031,363.806885 403.952057,362.722900 403.979919,361.750458 
	C404.340851,349.158997 404.735504,336.567749 404.975220,323.973724 
	C405.131714,315.750641 404.944397,307.520355 405.158264,299.299713 
	C405.205139,297.497803 406.301147,295.723236 407.352051,292.658722 
	C405.094360,294.072449 403.884399,294.830109 402.674438,295.587769 
	C402.274658,295.389435 401.874878,295.191101 401.475098,294.992798 
	C402.248901,293.409119 403.022705,291.825470 403.888092,290.054352 
	C402.371368,289.250580 400.854309,288.446655 399.163879,287.327820 
	C398.990540,287.012878 399.026611,286.973724 399.426453,286.976227 
	C402.550140,287.659515 405.273926,288.340302 407.997742,289.021057 
	C407.997742,289.021057 408.001221,288.998566 408.160492,289.250488 
	C408.880035,289.673981 409.440308,289.845551 410.000580,290.017120 
	C410.000580,290.017120 410.001221,289.997803 410.204498,290.274811 
	C411.936432,291.043152 413.465088,291.534485 414.993744,292.025818 
	C414.993744,292.025818 415.001740,291.999298 415.155457,292.255859 
	C415.868408,292.686066 416.427643,292.859680 416.986908,293.033264 
	C416.986908,293.033264 416.996063,292.997711 417.127319,293.298492 
	C418.166565,294.083679 419.074493,294.568054 419.982452,295.052460 
	C420.897797,295.847473 421.813171,296.642487 423.031830,297.963623 
	C423.894348,298.658112 424.453552,298.826447 425.230286,299.097504 
	C425.721649,299.388153 425.915527,299.638153 426.029358,299.950195 
z"/>
<path fill="#465EDB" opacity="1.000000" stroke="none" 
	d="
M397.781006,374.762085 
	C396.813843,374.895233 395.613556,374.742645 394.154724,374.334167 
	C395.113403,374.210938 396.330658,374.343658 397.781006,374.762085 
z"/>
<path fill="#452ECC" opacity="1.000000" stroke="none" 
	d="
M372.509857,280.933472 
	C376.448547,281.000122 380.835541,280.785675 385.136139,281.297241 
	C388.554291,281.703857 391.866882,282.998199 395.614380,283.937653 
	C396.002930,284.150360 396.003418,284.323853 395.998169,284.757690 
	C388.301880,283.667236 380.611359,282.316406 372.509857,280.933472 
z"/>
<path fill="#452ECC" opacity="1.000000" stroke="none" 
	d="
M407.795135,288.728821 
	C405.273926,288.340302 402.550140,287.659515 399.444916,286.957062 
	C399.063507,286.935394 399.023193,286.466980 399.010071,286.232269 
	C401.862152,286.810547 404.727325,287.623566 407.795135,288.728821 
z"/>
<path fill="#452ECC" opacity="1.000000" stroke="none" 
	d="
M396.193115,285.268066 
	C396.855011,285.161072 397.724945,285.315308 398.799255,285.736084 
	C398.136169,285.844879 397.268646,285.687103 396.193115,285.268066 
z"/>
<path fill="#5647D9" opacity="1.000000" stroke="none" 
	d="
M442.947205,398.670776 
	C442.180145,398.762970 441.388092,398.500854 440.303955,398.113464 
	C439.091187,396.852631 438.170593,395.717163 437.106628,394.300903 
	C438.949615,395.452240 440.935913,396.884369 442.947205,398.670776 
z"/>
<path fill="#452ECC" opacity="1.000000" stroke="none" 
	d="
M414.832581,291.701080 
	C413.465088,291.534485 411.936432,291.043152 410.195740,290.278809 
	C411.546295,290.462646 413.108887,290.919495 414.832581,291.701080 
z"/>
<path fill="#452ECC" opacity="1.000000" stroke="none" 
	d="
M419.988403,294.727966 
	C419.074493,294.568054 418.166565,294.083679 417.115417,293.313171 
	C417.979584,293.485840 418.986969,293.944672 419.988403,294.727966 
z"/>
<path fill="#4D54DA" opacity="1.000000" stroke="none" 
	d="
M425.012756,298.994812 
	C424.453552,298.826447 423.894348,298.658112 423.169159,298.240997 
	C423.440125,297.998535 423.877045,298.004883 424.641174,298.013855 
	C424.968384,298.016479 424.993774,298.002838 424.995148,298.253113 
	C424.996521,298.503387 425.012756,298.994812 425.012756,298.994812 
z"/>
<path fill="#452ECC" opacity="1.000000" stroke="none" 
	d="
M416.827759,292.776855 
	C416.427643,292.859680 415.868408,292.686066 415.143799,292.263031 
	C415.541870,292.182556 416.105255,292.351501 416.827759,292.776855 
z"/>
<path fill="#452ECC" opacity="1.000000" stroke="none" 
	d="
M409.838135,289.762939 
	C409.440308,289.845551 408.880035,289.673981 408.150574,289.256378 
	C408.546173,289.176453 409.110962,289.342621 409.838135,289.762939 
z"/>
<path fill="#512ED0" opacity="1.000000" stroke="none" 
	d="
M425.230286,299.097504 
	C425.012756,298.994812 424.996521,298.503387 424.988861,298.257751 
	C426.980133,299.092682 428.979095,300.173248 430.980225,301.634094 
	C429.558014,301.356964 428.133698,300.699493 426.369354,299.996124 
	C425.915527,299.638153 425.721649,299.388153 425.230286,299.097504 
z"/>
<path fill="#512ED0" opacity="1.000000" stroke="none" 
	d="
M434.827454,304.771179 
	C434.434387,304.846710 433.881866,304.669128 433.161438,304.246887 
	C433.551666,304.174164 434.109863,304.346100 434.827454,304.771179 
z"/>
<path fill="#512ED0" opacity="1.000000" stroke="none" 
	d="
M432.893585,303.783813 
	C432.672241,303.909790 432.407806,303.723846 432.098785,303.227417 
	C432.321625,303.098236 432.587067,303.283264 432.893585,303.783813 
z"/>
<path fill="#512ED0" opacity="1.000000" stroke="none" 
	d="
M431.889832,302.785980 
	C431.668213,302.912109 431.404266,302.727417 431.096191,302.233734 
	C431.321533,302.101044 431.586639,302.284515 431.889832,302.785980 
z"/>
</svg>